<?xml version="1.0" encoding="UTF-8" standalone="no"?>
<!-- Created with Inkscape (http://www.inkscape.org/) -->

<svg
   width="144.67842mm"
   height="148.65759mm"
   viewBox="0 0 144.67842 148.65759"
   version="1.1"
   id="svg1"
   xml:space="preserve"
   xmlns="http://www.w3.org/2000/svg"
   xmlns:svg="http://www.w3.org/2000/svg"><defs
     id="defs1" /><g
     id="layer1"
     transform="translate(-34.862772,-17.578234)"><path
       style="fill:#000000"
       d="m 101.57262,166.09877 c -0.0606,-0.0593 -1.17586,-0.18602 -2.478269,-0.28167 -1.302412,-0.0957 -2.436021,-0.21593 -2.519132,-0.2673 -0.08311,-0.0514 -0.684375,-0.1701 -1.336145,-0.26386 -1.999082,-0.28758 -8.457868,-1.90081 -11.009062,-2.74977 -14.564122,-4.84649 -28.442134,-15.37874 -37.17396,-28.21192 -3.019659,-4.438 -6.656357,-11.51759 -8.21178,-15.98594 -1.500258,-4.30987 -2.985344,-10.87689 -3.505102,-15.49948 -0.475935,-4.232845 -0.635981,-12.509996 -0.292138,-15.108573 0.09429,-0.712576 0.21592,-1.65278 0.270294,-2.089343 0.653012,-5.242965 0.985822,-6.96845 2.117855,-10.980208 2.01267,-7.132611 4.276437,-12.245853 8.475943,-19.144883 2.937832,-4.826327 10.050943,-12.862323 14.718401,-16.628028 7.275464,-5.869845 15.413302,-10.140106 24.36976,-12.787822 2.81985,-0.833607 3.631839,-1.196433 4.894792,-2.18717 1.946755,-1.527153 4.609016,-2.754242 7.571521,-3.489865 1.294273,-0.321382 3.139742,-0.990707 4.101042,-1.487388 0.9613,-0.496681 2.43204,-1.036819 3.26832,-1.200307 1.37299,-0.268411 1.76065,-0.229102 3.99568,0.40517 2.34825,0.666401 2.62425,0.689337 5.38247,0.447293 3.42115,-0.300218 5.54826,0.09215 6.76819,1.24847 1.70633,1.617362 1.50977,4.161854 -0.46419,6.008904 -0.76764,0.718283 -1.18472,1.361029 -1.29809,2.000411 -0.22509,1.269514 -1.7619,3.790115 -2.38387,3.909894 -0.38602,0.07434 -0.45981,-0.01093 -0.32145,-0.371489 0.0988,-0.257388 0.25217,-1.162433 0.34088,-2.01121 0.13113,-1.254583 0.0885,-1.543231 -0.22767,-1.543231 -0.21394,0 -1.45129,0.633496 -2.74967,1.407769 -1.29839,0.774272 -3.20385,1.89877 -4.23437,2.498883 -1.03052,0.600113 -2.02053,1.268082 -2.20004,1.484374 -0.17951,0.216293 -0.39401,1.048557 -0.47667,1.849475 -0.14402,1.395389 -0.11291,1.491268 0.74483,2.29536 1.03703,0.972166 3.79317,2.369876 4.67375,2.37018 0.68652,2.38e-4 0.81059,-0.231663 1.08277,-2.02383 l 0.19489,-1.283253 0.5848,0.926042 c 0.32164,0.509323 0.71626,1.357159 0.87695,1.88408 0.20623,0.676288 0.53572,1.065345 1.12039,1.322916 0.67331,0.29662 0.84303,0.540755 0.90726,1.305025 0.1505,1.790648 -1.54895,3.109873 -4.31531,3.349827 -1.40107,0.121529 -2.03046,-0.01054 -5.28547,-1.109099 -2.76757,-0.934049 -4.47786,-1.338502 -6.81399,-1.611389 -2.227821,-0.260236 -3.703028,-0.598199 -5.163111,-1.182844 -2.315597,-0.92721 -2.36498,-0.924981 -6.648789,0.300177 -2.481801,0.709789 -2.791024,0.746579 -3.195834,0.380232 -0.246495,-0.223075 -0.676923,-0.410359 -0.956506,-0.416185 -0.408997,-0.0085 -0.366148,-0.08773 0.219271,-0.405325 0.760245,-0.41244 0.913648,-0.760787 0.458819,-1.041886 -0.423959,-0.262022 0.532872,-1.650861 1.440041,-2.090216 1.017618,-0.492847 1.14428,-0.360141 0.472,0.494524 -0.62127,0.789817 -0.503578,1.824396 0.182761,1.606561 1.158448,-0.367677 3.540444,-0.934756 3.941579,-0.938366 0.93747,-0.0084 1.15785,-0.375724 0.724295,-1.207114 -0.453007,-0.868692 -0.531378,-2.684064 -0.141891,-3.286751 0.141064,-0.218282 0.272037,-0.277813 0.291051,-0.132292 0.01901,0.145521 0.05208,0.383646 0.07347,0.529167 0.123029,0.836789 1.263426,2.76512 2.003585,3.387923 1.459555,1.228135 2.967046,1.737303 6.399079,2.161344 2.51335,0.310534 3.97639,0.664705 6.31406,1.528502 2.58996,0.957019 3.3418,1.124314 5.05273,1.124314 1.86786,0 2.88477,-0.322922 2.88477,-0.916065 0,-0.104397 -0.86041,-0.343576 -1.91202,-0.53151 -1.92228,-0.343531 -5.06334,-1.785253 -7.42583,-3.408394 -1.67019,-1.147502 -4.87014,-2.797995 -6.753084,-3.48315 -1.663895,-0.605449 -2.959063,-1.414906 -2.959063,-1.849362 0,-0.125509 1.041797,-0.162002 2.315104,-0.08109 3.969973,0.252254 6.891263,-0.771782 13.824483,-4.846069 1.96453,-1.15445 4.48297,-2.498592 5.59653,-2.986982 2.06537,-0.905837 2.60555,-1.479234 2.60555,-2.765786 0,-0.800601 -1.04503,-1.746516 -2.22305,-2.012203 -0.5232,-0.118001 -2.40995,-0.155824 -4.19276,-0.08405 -2.04849,0.08247 -3.67968,0.01646 -4.43211,-0.17935 -3.22964,-0.840481 -3.5907,-0.871311 -5.09223,-0.434802 -0.80012,0.2326 -2.17701,0.905205 -3.05975,1.494678 -1.40653,0.939245 -1.818009,1.080977 -3.327765,1.146238 -1.352204,0.05845 -2.142269,0.281793 -3.672971,1.038307 -2.019945,0.998311 -4.426447,2.891071 -4.426447,3.481485 0,0.213073 -0.544983,0.402013 -1.474791,0.511293 -2.6749,0.314382 -4.704822,1.872323 -3.823378,2.934397 0.184734,0.222591 0.52966,0.40893 0.766503,0.414086 0.236844,0.0052 0.712486,0.165651 1.056983,0.356654 0.949747,0.526577 0.193497,0.660779 -1.91994,0.340708 l -1.822748,-0.276047 -0.756939,0.847162 c -1.408457,1.576337 -0.916862,2.387864 1.725495,2.848461 1.692993,0.29511 0.409147,0.734439 -1.55745,0.532956 l -1.65019,-0.169067 -0.960314,1.062953 c -0.921109,1.019557 -1.272331,2.119761 -0.676699,2.119761 0.155988,0 0.781066,-0.285774 1.389062,-0.635054 1.162823,-0.668014 6.582924,-2.64718 8.05076,-2.939758 0.655112,-0.130581 0.859896,-0.07959 0.859896,0.214101 0,0.574135 -0.437767,0.842018 -2.910417,1.780978 -1.236927,0.469709 -3.684126,1.541407 -5.438219,2.381552 -2.909994,1.393777 -3.227215,1.616689 -3.622692,2.545671 -0.650158,1.527232 -0.782673,2.150971 -0.587574,2.765673 0.141594,0.446124 0.324601,0.527344 0.919939,0.408276 0.741557,-0.148311 1.05563,0.154805 1.05563,1.018801 0,0.194266 -0.982266,1.036888 -2.182813,1.872494 -12.253611,8.528771 -20.265152,21.65666 -22.181181,36.346572 -0.66287,5.082135 -0.156236,12.529931 1.224804,18.005272 3.782243,14.99529 15.240404,28.85352 29.629337,35.83561 3.855805,1.87099 9.701658,3.71051 14.279644,4.49338 3.169545,0.54202 4.391545,0.62127 8.466665,0.54908 5.2878,-0.0937 7.7304,-0.37904 11.62697,-1.35835 8.89294,-2.23504 17.13314,-6.90587 24.19762,-13.71605 4.60843,-4.44254 8.4271,-9.55771 11.26381,-15.08804 8.82029,-17.195715 6.81145,-38.064087 -5.18864,-53.901001 -3.78086,-4.98973 -10.1124,-10.434724 -15.97059,-13.734386 -4.4309,-2.495731 -4.15319,-2.284252 -3.8192,-2.908329 0.2824,-0.527669 0.70198,-0.548898 1.88398,-0.09532 0.1996,0.07659 0.58292,-0.02162 0.85183,-0.218255 0.41324,-0.302167 0.43946,-0.449939 0.16941,-0.954541 -0.45625,-0.852503 -0.16909,-0.964137 0.76645,-0.29797 0.99403,0.707807 1.05106,1.473559 0.13256,1.779725 -0.63998,0.213329 -0.57043,0.285779 1.2912,1.344965 1.08219,0.61572 2.08821,1.119491 2.23561,1.119491 0.52128,0 0.59842,-0.891182 0.19675,-2.272884 -0.50354,-1.73214 -0.81174,-2.043818 -3.15673,-3.192415 -5.56527,-2.725923 -9.81015,-4.083537 -16.36072,-5.232559 -0.5457,-0.09572 -0.99218,-0.301906 -0.99218,-0.458191 0,-0.488361 4.65395,-0.09196 8.02882,0.683856 1.72371,0.396249 3.19669,0.657786 3.27329,0.581193 0.2497,-0.249699 -0.86944,-2.104147 -1.59817,-2.648224 -0.6513,-0.486269 -0.83933,-0.504131 -2.24673,-0.213437 -3.03304,0.626465 -4.0536,0.229663 -1.48874,-0.578837 0.80881,-0.254954 1.5318,-0.623139 1.60664,-0.818189 0.28732,-0.748725 -0.65692,-1.907696 -2.07208,-2.543297 l -1.40199,-0.629689 0.86478,-0.08704 c 1.22187,-0.122983 2.97709,0.908952 3.63314,2.136009 0.65498,1.225072 1.07496,1.367244 2.91218,0.985838 1.24258,-0.257959 1.45344,-0.388281 1.45344,-0.898312 0,-1.361709 -2.02547,-2.406701 -6.68073,-3.446761 -0.59546,-0.133034 -0.7276,-0.30637 -0.7276,-0.954394 0,-0.780736 0.0158,-0.789552 1.12448,-0.62893 4.94267,0.716055 12.06789,3.212545 18.43778,6.460111 13.20325,6.731418 24.58752,18.764707 30.96837,32.733875 1.93933,4.245638 2.41526,5.569747 3.82997,10.655613 1.98746,7.144885 2.53543,10.852108 2.6594,17.991667 0.10176,5.86088 -0.0969,8.838828 -0.92391,13.847948 -1.9736,11.95424 -7.52424,23.96689 -15.42383,33.38018 -9.43244,11.23984 -20.25077,18.51064 -34.83373,23.41108 -2.43216,0.81731 -8.32175,2.02258 -12.2317,2.50315 -3.00748,0.36965 -14.22378,0.60434 -14.53096,0.30404 z m 16.29392,-2.26121 c 4.61388,-0.71304 11.07445,-2.36604 13.49375,-3.45251 0.29104,-0.13071 1.60073,-0.66924 2.91041,-1.19675 17.64643,-7.1075 32.76443,-22.78186 39.29303,-40.73905 1.09389,-3.00878 2.82364,-9.56528 2.58619,-9.80273 -0.0741,-0.0741 -0.52083,0.22598 -0.99276,0.66682 -0.47192,0.44084 -0.96451,0.80153 -1.09465,0.80153 -0.36735,0 -0.27931,1.39992 0.16772,2.66694 0.50272,1.42484 0.31137,2.21502 -0.31858,1.31564 -0.23373,-0.3337 -0.55867,-1.05956 -0.72209,-1.61303 l -0.29713,-1.00631 -1.38534,1.32152 c -1.29924,1.23939 -1.38534,1.4014 -1.38534,2.60678 0,0.82559 0.15146,1.43671 0.4235,1.70876 0.38829,0.38829 0.52366,0.36753 1.62774,-0.24955 0.66232,-0.37018 1.2539,-0.62338 1.31461,-0.56267 0.29565,0.29565 -0.72874,1.311 -1.91065,1.89379 -0.7276,0.35878 -1.84008,1.17917 -2.47218,1.82309 -1.27003,1.29381 -2.53812,2.00129 -3.58707,2.00129 -1.10746,0 -0.79931,-0.46517 0.86456,-1.30509 1.82573,-0.92162 3.04637,-2.22466 2.84426,-3.03628 -0.0758,-0.30438 -0.21672,-1.04991 -0.31318,-1.65673 l -0.17537,-1.10331 -1.25561,0.77258 c -0.69058,0.42492 -1.37704,0.77258 -1.52546,0.77258 -0.14842,0 -0.87586,1.22039 -1.61652,2.71198 -2.09627,4.22158 -3.90414,6.74071 -4.44754,6.19731 -0.0545,-0.0545 0.54072,-1.35237 1.3226,-2.88425 0.78189,-1.53188 1.80945,-3.71687 2.28348,-4.85553 0.84221,-2.02308 0.85503,-2.11281 0.56225,-3.935 -0.5975,-3.71866 -1.00425,-4.58583 -2.75577,-5.87523 -0.86784,-0.63887 -1.6318,-1.10766 -1.69769,-1.04177 -0.0659,0.0659 -0.69886,1.46144 -1.40659,3.10122 -0.89835,2.08144 -1.20683,3.07774 -1.02192,3.30054 0.14568,0.17553 0.90433,0.632 1.68589,1.01438 1.06242,0.51979 1.4936,0.90344 1.70863,1.52028 0.35653,1.02274 0.36713,2.08998 0.0296,2.97781 -0.39361,1.03528 -0.79984,0.81009 -0.80419,-0.4458 -0.006,-1.61773 -0.46633,-2.30725 -2.11277,-3.16197 -1.30875,-0.67941 -1.48184,-0.71186 -1.71979,-0.3224 -3.81638,6.24622 -5.94245,9.09066 -9.64628,12.90565 -8.38522,8.63687 -18.30459,14.1792 -29.24747,16.34168 -2.81604,0.55649 -3.90787,0.62753 -9.65729,0.62833 -6.08884,8.4e-4 -6.69909,-0.0443 -10.054169,-0.74433 -12.497658,-2.60747 -23.817545,-9.3748 -31.723896,-18.96538 -2.310758,-2.803 -4.52402,-5.69825 -4.52402,-5.91803 0,-0.0655 -0.535541,-0.93379 -1.190092,-1.92958 -0.654551,-0.99579 -1.190333,-1.93555 -1.190625,-2.08834 -0.0014,-0.7077 -0.611964,-0.88651 -1.267206,-0.3711 -0.361225,0.28414 -0.849075,0.5204 -1.084112,0.52503 -0.968017,0.0191 -1.882548,1.28134 -1.882548,2.59839 0,1.00095 -0.25083,1.66626 -0.556891,1.4771 -0.352983,-0.21815 -0.278735,-3.05796 0.09986,-3.81932 0.180905,-0.3638 0.804228,-0.88543 1.385162,-1.15916 0.580935,-0.27374 1.315324,-0.65766 1.631975,-0.85317 l 0.57573,-0.35546 -1.336295,-3.11558 c -0.734963,-1.71358 -1.365,-3.1492 -1.400083,-3.19029 -0.03508,-0.0411 -0.732301,0.3161 -1.549373,0.79375 -1.769767,1.03458 -2.117738,1.65938 -2.870168,5.15352 -0.534324,2.48129 -0.536526,2.59023 -0.07877,3.8963 0.259005,0.739 1.299365,2.98842 2.311911,4.99873 1.012545,2.0103 1.783972,3.71211 1.714281,3.7818 -0.332584,0.33259 -2.410442,-2.6062 -3.910465,-5.5307 -1.633114,-3.18399 -1.704587,-3.27505 -3.218268,-4.10052 -1.055482,-0.57559 -1.575768,-0.73964 -1.635138,-0.51557 -0.728168,2.7482 -0.729469,2.87076 -0.04007,3.77461 0.742449,0.9734 2.027108,1.84509 3.12192,2.11834 0.833518,0.20803 0.991126,0.91798 0.203792,0.91798 -1.117375,0 -2.664906,-0.89505 -3.923644,-2.26933 -0.753948,-0.82316 -1.540465,-1.43483 -1.844971,-1.43483 -0.545201,0 -2.174239,-1.33777 -2.174239,-1.78549 0,-0.13765 0.601096,0.0472 1.335769,0.4108 1.58561,0.78471 1.79222,0.65921 2.015272,-1.22411 l 0.161978,-1.36766 -1.482074,-1.42403 -1.482074,-1.42404 -0.290659,0.88071 c -0.159863,0.48439 -0.57678,1.30233 -0.926483,1.81764 l -0.635824,0.93694 1.047823,3.0388 c 3.580482,10.38379 10.530033,20.56872 19.25306,28.21638 4.045783,3.54702 6.2837,5.23662 9.874825,7.45541 9.263766,5.72363 19.355133,9.1901 30.262759,10.3955 4.42872,0.48942 13.23773,0.28754 17.72708,-0.40625 z M 101.51,160.11973 c 0.71041,-0.28628 0.81529,-1.00381 0.97637,-6.67972 0.10446,-3.68091 0.067,-4.19748 -0.32057,-4.42372 -0.6228,-0.36353 4.73448,-0.35416 5.69549,0.01 2.20274,0.83459 2.59883,2.77694 0.9948,4.87833 -0.61636,0.80748 -0.8587,1.33895 -0.70294,1.54162 1.78561,2.32338 3.41686,4.09864 4.10231,4.46446 l 0.84858,0.45287 -1.48567,0.0111 c -1.76216,0.0131 -2.3755,-0.38246 -3.77381,-2.43415 -1.48762,-2.18272 -1.6139,-2.2995 -2.57001,-2.37672 l -0.90176,-0.0728 -0.0423,1.85208 c -0.0278,1.21889 0.0873,2.05561 0.33683,2.44739 l 0.37912,0.59532 -2.05662,-0.0168 c -1.45608,-0.0119 -1.8882,-0.0847 -1.47983,-0.24921 z m 5.53516,-5.75735 c 0.51811,-0.34594 0.8995,-1.3271 0.8995,-2.31401 0,-1.33086 -1.17154,-2.51058 -2.49319,-2.51058 h -0.94639 v 2.51354 2.51354 l 1.12448,-0.004 c 0.61846,-0.002 1.25548,-0.0915 1.4156,-0.19844 z m -18.018204,3.80114 c -2.261884,-0.71534 -4.02674,-2.16102 -4.671286,-3.82648 -0.521205,-1.34675 -0.296212,-3.66866 0.498295,-5.14235 1.070641,-1.98589 2.750963,-2.96462 5.077132,-2.95725 2.348289,0.007 3.68797,0.45367 5.103994,1.7001 0.894452,0.78733 1.302104,1.4101 1.652769,2.52496 1.091961,3.47163 -0.711064,6.75221 -4.210763,7.66143 -1.846134,0.47963 -2.051298,0.48198 -3.450141,0.0396 z m 3.626963,-1.25662 c 0.9979,-0.71057 2.325674,-3.45397 2.325953,-4.80581 3e-4,-1.44633 -1.161291,-3.7433 -2.225678,-4.40112 -1.355356,-0.83766 -2.31631,-0.93023 -3.628976,-0.34957 -3.280158,1.45097 -3.764184,7.49054 -0.763723,9.52958 1.182593,0.80366 3.183966,0.81621 4.292424,0.0269 z m 31.934471,0.99542 c 0.23558,-0.28386 0.027,-1.25538 -0.92315,-4.29948 -0.67513,-2.16302 -1.36998,-4.40901 -1.54412,-4.99109 -0.26895,-0.89903 -0.42382,-1.05676 -1.02882,-1.0479 -0.39172,0.006 -0.71222,-0.055 -0.71222,-0.13497 0,-0.08 1.6363,-0.64014 3.63622,-1.24484 3.82803,-1.15745 4.02445,-1.1492 4.03265,0.1693 0.004,0.59441 -0.0329,0.61506 -0.41426,0.2337 -0.38136,-0.38135 -0.54983,-0.37761 -1.90715,0.0423 -0.81886,0.25336 -1.53411,0.59647 -1.58944,0.76246 -0.16569,0.49707 0.79958,3.24378 1.19301,3.39476 0.20063,0.077 1.03873,-0.10828 1.86243,-0.41171 0.82371,-0.30344 1.52203,-0.52662 1.55183,-0.49597 0.0298,0.0307 0.13758,0.50222 0.23952,1.04792 0.12375,0.6625 0.0876,0.99219 -0.1087,0.99219 -0.16171,0 -0.29403,-0.17859 -0.29403,-0.39687 0,-0.50484 -0.39738,-0.49981 -1.93613,0.0245 -1.40183,0.47765 -1.38911,0.33379 -0.31359,3.54738 0.54484,1.62793 0.62382,1.72469 1.4788,1.81141 0.79905,0.0811 0.6591,0.16378 -1.21345,0.71732 -2.54095,0.75113 -2.38248,0.72909 -2.0094,0.27955 z m 9.45015,-2.99634 c -0.0782,-0.0782 0.0893,-0.33579 0.37216,-0.57239 0.50939,-0.42601 0.5093,-0.48395 -0.009,-5.98642 -0.59625,-6.32689 -0.62362,-7.01146 -0.28036,-7.01146 0.13599,0 1.17778,0.74026 2.3151,1.64503 5.88851,4.68447 7.55458,5.81689 8.32993,5.66182 0.41216,-0.0824 0.74939,-0.11024 0.74939,-0.0618 0,0.0484 -0.69526,0.5172 -1.54501,1.0417 l -1.54501,0.95363 -1.46885,-1.42269 -1.46884,-1.42269 -1.86699,0.96842 -1.86698,0.96842 0.13542,1.19189 c 0.2608,2.29547 0.3306,2.45094 1.0395,2.31543 0.35709,-0.0683 0.64283,-0.0513 0.63498,0.0376 -0.022,0.24923 -3.36396,1.85469 -3.52518,1.69348 z m 3.1355,-7.00841 c 0.65874,-0.32004 1.19771,-0.66277 1.19771,-0.76161 0,-0.19246 -2.77413,-2.62525 -2.99359,-2.62525 -0.0721,0 -0.0767,0.50601 -0.0104,1.12448 0.19485,1.81527 0.37405,2.84427 0.49531,2.84427 0.0623,0 0.65219,-0.26185 1.31092,-0.58189 z m -60.184602,5.45184 c -1.813027,-1.03624 -1.930557,-1.16649 -1.50395,-1.66674 0.199379,-0.2338 0.553559,-0.90134 0.787067,-1.48342 0.233508,-0.58208 0.787759,-1.93387 1.231668,-3.00398 0.44391,-1.0701 0.807109,-2.05447 0.807109,-2.18749 0,-0.13301 -1.577578,0.81012 -3.505729,2.09584 -1.928151,1.28573 -3.638819,2.41623 -3.801483,2.51222 -0.299988,0.17703 -0.298381,-0.23493 0.02501,-6.41095 0.0719,-1.37305 0.03432,-2.38508 -0.08351,-2.24896 -1.244996,1.43829 -2.985232,3.5953 -3.471844,4.30332 -0.502732,0.73148 -0.556017,0.98919 -0.314241,1.51983 0.270433,0.59354 0.188079,0.57056 -1.157697,-0.32298 -0.796863,-0.52909 -1.448841,-0.98434 -1.448841,-1.01167 0,-0.0273 0.217027,-0.0402 0.482282,-0.0287 0.30581,0.0133 1.694558,-1.3828 3.795304,-3.81545 3.523192,-4.07984 4.10625,-4.66894 4.364955,-4.41024 0.0897,0.0897 0.02277,2.32464 -0.148738,4.96654 -0.171504,2.6419 -0.252743,4.86254 -0.180531,4.93475 0.07221,0.0722 1.569315,-0.80631 3.326896,-1.95227 1.757582,-1.14597 3.686508,-2.37084 4.286502,-2.72194 1.310716,-0.767 1.42121,-1.29645 -1.091916,5.23202 -1.028594,2.67202 -1.870171,5.04015 -1.870171,5.26249 0,0.22235 0.208359,0.56244 0.46302,0.75575 0.737549,0.55988 0.298083,0.4189 -0.991164,-0.31798 z m 72.924082,-8.43084 c 0.15799,-0.41173 -1.43014,-2.68032 -4.1752,-5.96411 -0.54741,-0.65485 -1.22042,-1.47931 -1.49558,-1.83215 l -0.50028,-0.64152 -1.23015,1.02828 c -0.78841,0.65903 -1.23015,1.24008 -1.23015,1.61809 0,0.9824 -0.49719,0.97063 -0.97101,-0.023 -0.24571,-0.51525 -0.39564,-0.97507 -0.33318,-1.02181 2.16853,-1.62301 5.20161,-4.04886 6.26793,-5.01307 0.76553,-0.69222 1.50103,-1.25858 1.63444,-1.25858 0.28474,0 1.33932,1.28542 1.33932,1.63249 0,0.13101 -0.24367,0.1078 -0.54149,-0.0516 -0.45125,-0.2415 -0.7454,-0.14334 -1.76488,0.58895 -0.67285,0.48331 -1.26591,1.00637 -1.3179,1.16234 -0.10492,0.31476 5.33905,6.9174 6.07075,7.36284 0.33753,0.20548 0.61277,0.18722 1.02098,-0.0677 1.05213,-0.65706 0.36975,0.15853 -1.28536,1.53628 -0.90989,0.75743 -1.5796,1.18234 -1.48824,0.94426 z m -90.127276,-3.7813 c -0.727201,-0.82517 -0.982316,-1.28225 -0.742863,-1.33097 0.200584,-0.0408 0.686128,-0.80146 1.078988,-1.69034 l 0.714291,-1.61615 -1.065471,-1.27258 c -0.586009,-0.69993 -1.283547,-1.34181 -1.550085,-1.4264 -0.266537,-0.0846 -1.064258,0.0756 -1.772713,0.35599 -1.115347,0.44144 -1.286256,0.60792 -1.274346,1.24132 0.01311,0.69752 -0.04515,0.66497 -1.253852,-0.70036 -1.340731,-1.51447 -1.634796,-2.11185 -0.726349,-1.47555 0.660457,0.46261 1.303571,0.31296 6.596655,-1.53493 3.942548,-1.3764 5.750321,-1.88738 5.954589,-1.68312 0.07399,0.074 -0.898097,2.38597 -2.160203,5.13772 -1.67442,3.65071 -2.300745,5.30693 -2.316958,6.12682 -0.01222,0.618 -0.101398,1.12401 -0.198171,1.12448 -0.09677,4.6e-4 -0.674354,-0.56471 -1.283512,-1.25593 z m 2.389945,-7.35112 c 0.472805,-0.95079 0.794143,-1.79422 0.714085,-1.87428 -0.120341,-0.12034 -3.25697,0.86407 -3.601843,1.13041 -0.07625,0.0589 1.701939,2.24308 1.992695,2.44767 0.01948,0.0137 0.422258,-0.753 0.895063,-1.7038 z m 96.499241,2.33235 c 0.1243,-0.86176 -0.20256,-1.20635 -4.56098,-4.80842 -1.60072,-1.32294 -3.05924,-2.34682 -3.24114,-2.27528 -0.1819,0.0715 -0.53051,0.21047 -0.77469,0.30874 -0.50077,0.20153 1.97684,-2.96239 2.5006,-3.19327 0.26336,-0.11609 0.27215,-0.0276 0.0403,0.40559 -0.34595,0.64642 -0.55526,0.40964 2.93012,3.31485 4.55411,3.79604 4.42869,3.73019 5.93261,3.11482 0.39919,-0.16334 -1.04979,1.76788 -2.74767,3.66214 -0.10192,0.11371 -0.13755,-0.12442 -0.0792,-0.52917 z M 48.057413,114.34821 c -0.319705,-1.19778 -0.441775,-1.27173 -0.89673,-0.54323 -0.276256,0.44236 -0.224153,0.59183 0.368911,1.05833 0.379831,0.29878 0.717534,0.54323 0.750453,0.54323 0.03292,0 -0.06727,-0.47625 -0.222634,-1.05833 z m 119.153917,-0.12599 c 0,-0.7339 -0.48305,-0.65157 -0.75505,0.12869 -0.25885,0.74255 -0.24287,0.77733 0.23881,0.51954 0.28393,-0.15195 0.51624,-0.44366 0.51624,-0.64823 z M 40.630582,111.22521 c 0.149376,-0.93415 0.09534,-1.09798 -0.455616,-1.38142 -0.3438,-0.17687 -1.025739,-0.69425 -1.51542,-1.14973 -0.716802,-0.66674 -0.861147,-0.72501 -0.740606,-0.29898 0.08235,0.29104 0.39832,1.5412 0.702161,2.77813 0.303842,1.23692 0.617044,2.42755 0.696006,2.64583 0.198568,0.54892 1.093546,-1.21848 1.313475,-2.59383 z m 6.447202,1.68311 c 0.248977,-0.3 0.200774,-0.79484 -0.225519,-2.3151 -0.48074,-1.71445 -0.70034,-2.07502 -1.93791,-3.18191 -0.767652,-0.68659 -1.46981,-1.25213 -1.560352,-1.25677 -0.09054,-0.005 -0.243798,0.48672 -0.340569,1.0919 -0.09677,0.60517 -0.374362,1.4362 -0.616869,1.84673 -0.428707,0.72574 -0.419273,0.77681 0.340569,1.84331 0.762619,1.07041 2.719361,2.35339 3.589272,2.35339 0.239094,0 0.577214,-0.1717 0.751378,-0.38155 z m 3.453228,-4.77933 c 0.343798,-0.55627 1.094343,-1.20249 1.829036,-1.57478 2.049186,-1.03841 2.069412,-1.10278 1.319016,-4.1981 -0.620915,-2.561226 -0.697344,-2.714199 -1.570105,-3.142591 -1.055832,-0.518253 -2.182394,-0.596157 -2.919136,-0.201864 -0.281447,0.150625 -0.853982,0.87314 -1.2723,1.605585 -0.71655,1.25463 -0.770146,1.2936 -0.925857,0.6732 -0.187773,-0.74815 -0.0229,-1.32614 0.659847,-2.313173 0.4724,-0.68294 0.470099,-0.691222 -0.435965,-1.569415 -0.500979,-0.485568 -0.957115,-0.831458 -1.013634,-0.768644 -0.214883,0.238813 0.641,7.368272 1.173056,9.771502 0.516213,2.33166 1.410254,5.68706 1.762446,6.61458 0.08288,0.21828 0.299163,-0.58182 0.48062,-1.77801 0.194713,-1.28357 0.568869,-2.56151 0.912976,-3.11829 z m -0.78537,-4.08214 c -0.338632,-0.63274 -0.348801,-1.87051 -0.01964,-2.39098 0.376021,-0.59458 0.629859,-0.1353 0.805087,1.45665 0.118311,1.07487 0.07308,1.4461 -0.176189,1.4461 -0.184449,0 -0.458614,-0.23029 -0.609254,-0.51177 z m 120.640688,8.20676 c 0.50932,-0.4068 1.13827,-1.10182 1.39765,-1.54448 0.42758,-0.72971 0.43513,-0.88766 0.0809,-1.69174 -0.21491,-0.48779 -0.46501,-1.34788 -0.55579,-1.9113 l -0.16504,-1.02441 -0.70957,0.65111 c -0.39026,0.35811 -1.07056,0.89801 -1.51176,1.19978 -0.64393,0.44042 -0.86578,0.8565 -1.12448,2.10901 -0.40657,1.96842 -0.40514,2.53045 0.008,2.9431 0.45042,0.45042 1.45914,0.16465 2.58061,-0.73107 z m -3.86989,-3.78816 c 0.61637,-2.54773 1.90395,-11.517208 1.68478,-11.736382 -0.055,-0.05501 -0.48895,0.30126 -0.96432,0.791712 -0.85641,0.883588 -0.86033,0.899401 -0.42991,1.73174 0.2415,0.467006 0.39834,1.27352 0.35322,1.81629 l -0.0812,0.97627 -0.84367,-1.4886 c -0.9902,-1.74713 -1.55718,-1.980782 -3.44567,-1.41996 l -1.31708,0.39113 -0.74076,2.79475 c -0.83574,3.15308 -0.8888,2.9756 1.26452,4.22967 1.59099,0.92657 2.38288,2.22238 2.8694,4.69529 l 0.30789,1.56497 0.34282,-0.81533 c 0.18855,-0.44844 0.63853,-2.03763 0.99995,-3.53155 z m -2.69231,-5.23107 c 0.0884,-1.85517 0.5222,-2.33097 0.96556,-1.05913 0.31527,0.90438 0.0871,1.79566 -0.60727,2.37192 -0.4012,0.33297 -0.43145,0.22213 -0.35829,-1.31279 z m -122.018749,4.87889 c 0.141919,-0.37327 0.253308,-1.17694 0.24753,-1.78593 -0.0088,-0.92765 -0.193119,-1.30554 -1.1363,-2.32962 l -1.125794,-1.22237 -0.885742,1.65779 -0.885743,1.65779 0.576706,0.80991 c 1.325416,1.86137 2.756995,2.4022 3.209343,1.21243 z m 133.320959,-0.54919 c 0.59445,-0.67533 1.08082,-1.38179 1.08082,-1.56992 0,-0.18812 -0.37198,-0.94044 -0.82663,-1.67182 l -0.82663,-1.32977 -1.13806,1.24605 c -1.07117,1.17282 -1.12928,1.31601 -0.98879,2.43667 0.31284,2.49544 1.0666,2.74363 2.69929,0.88879 z M 45.865569,106.21227 c -0.407612,-1.67864 -0.464614,-1.74263 -1.012838,-1.13685 -0.485447,0.53642 -0.483036,0.55992 0.123706,1.20577 0.806022,0.85797 1.108508,0.83452 0.889132,-0.0689 z m 123.585081,-0.96652 c -0.28528,-0.2086 -0.53286,-0.35925 -0.55016,-0.33477 -0.0173,0.0245 -0.11495,0.52077 -0.21698,1.10285 l -0.18552,1.05833 0.73568,-0.72356 c 0.71916,-0.70732 0.72403,-0.73208 0.21698,-1.10285 z m -131.179836,-1.5638 c 0.240332,-0.46372 0.523103,-1.22342 0.62838,-1.68824 0.171542,-0.75738 0.0671,-0.97486 -1.006048,-2.094858 l -1.197461,-1.249739 0.18267,2.227147 c 0.341461,4.16318 0.511418,4.50564 1.392459,2.80569 z m 139.103516,-2.0676 c 0.19239,-1.65487 0.31492,-3.049682 0.27228,-3.099586 -0.0426,-0.0499 -0.26736,0.276397 -0.4994,0.725113 -0.23204,0.448715 -0.71707,1.009253 -1.07785,1.245643 -0.36152,0.23688 -0.65479,0.68334 -0.65336,0.99468 0.003,0.66257 1.26717,3.48435 1.47007,3.28145 0.0762,-0.0761 0.29587,-1.49244 0.48826,-3.1473 z m -132.762066,2.27156 c 0.611487,-0.61149 0.655561,-0.79811 0.484264,-2.05052 -0.250896,-1.83439 -0.434475,-2.211334 -1.816164,-3.729139 l -1.177042,-1.292997 -0.311893,1.158279 c -0.17154,0.637054 -0.537707,1.475408 -0.813702,1.863008 -0.275996,0.387599 -0.501811,0.876839 -0.501811,1.087209 0,0.45415 1.44753,2.50654 2.228416,3.15957 0.751592,0.62853 1.121927,0.5906 1.907932,-0.19541 z M 172.68381,103.1947 c 1.13263,-1.21647 1.25099,-2.0411 0.52553,-3.661335 -0.35881,-0.801369 -0.76151,-1.744931 -0.89489,-2.096805 -0.24242,-0.639531 -0.24273,-0.639409 -0.83963,0.32639 -0.32842,0.53139 -0.88695,1.194146 -1.24119,1.472791 -0.5714,0.44946 -0.65137,0.739449 -0.70871,2.569899 -0.0611,1.94954 -0.0292,2.08128 0.57847,2.3902 0.7461,0.3793 1.60561,0.0458 2.58042,-1.00114 z M 40.40977,98.74441 c 0.686878,-1.013767 0.811957,-2.937028 0.22281,-3.425977 -0.204877,-0.170032 -0.57756,-0.741276 -0.828186,-1.269431 l -0.455683,-0.96028 -0.400341,0.774013 c -0.220187,0.425707 -0.737316,1.161515 -1.149176,1.635128 -0.623921,0.717471 -0.706849,0.971552 -0.497131,1.52315 0.710222,1.868026 1.561099,2.882516 2.247811,2.680037 0.145521,-0.04291 0.532474,-0.473395 0.859896,-0.95664 z m 135.04434,0.720984 c 0.54605,-0.444357 1.43574,-1.784033 1.65574,-2.493163 0.13336,-0.429857 -0.0913,-0.930589 -0.89019,-1.984375 -0.5877,-0.775193 -1.07023,-1.588035 -1.07228,-1.806317 -0.002,-0.218281 -0.29771,0.198438 -0.65703,0.926042 -0.35932,0.727604 -0.79177,1.51184 -0.96101,1.742747 -0.39077,0.533187 -0.13446,1.950604 0.55804,3.085899 0.57744,0.946689 0.76461,1.019153 1.36673,0.529167 z M 44.626807,95.921319 c -0.06257,-0.06257 -0.418382,0.02504 -0.790699,0.194676 l -0.676939,0.308434 0.708894,1.07522 0.708895,1.075221 0.0818,-1.269896 c 0.04499,-0.698443 0.03061,-1.321087 -0.03196,-1.383655 z m 8.019942,1.833732 c 0,-0.684002 -0.02202,-0.696129 -0.463021,-0.255015 -0.404954,0.405058 -0.413249,0.494613 -0.06615,0.714104 0.539956,0.34144 0.529167,0.3508 0.529167,-0.459089 z M 162.3882,97.89443 c -0.16354,-0.490596 -0.73312,-0.571966 -0.73312,-0.104731 0,0.230408 0.18851,0.418924 0.41892,0.418924 0.23041,0 0.3718,-0.141387 0.3142,-0.314193 z m 8.09915,-0.497875 c 0.26384,-0.446638 0.43834,-0.837516 0.38778,-0.868619 -0.0506,-0.0311 -0.28795,-0.205795 -0.52754,-0.388206 -0.38686,-0.294542 -0.44629,-0.19734 -0.53107,0.868619 -0.0525,0.66015 -0.031,1.200274 0.0478,1.200274 0.0788,0 0.35916,-0.365431 0.62299,-0.812068 z M 50.714144,96.897348 c 1.570581,-0.957643 1.764515,-1.538526 1.574904,-4.71723 -0.185243,-3.105469 -0.350556,-3.40809 -2.204094,-4.034786 -0.726372,-0.245591 -0.980717,-0.196556 -1.852083,0.357066 -1.864566,1.184651 -2.068413,1.576804 -2.068413,3.979123 0,2.485497 0.509501,3.501929 2.204107,4.397096 1.220652,0.644803 1.317524,0.645576 2.345579,0.01873 z m -2.003192,-3.35227 c -0.237669,-0.521626 -0.243139,-0.917292 -0.02195,-1.5875 0.33616,-1.018574 0.773351,-1.180655 0.802176,-0.297393 0.01069,0.327422 0.05804,1.041797 0.105225,1.5875 0.101961,1.179095 -0.405988,1.349698 -0.88545,0.297393 z m 117.319968,3.29647 c 0.46019,-0.315328 1.16787,-1.096764 1.57261,-1.736524 0.66009,-1.043386 0.72202,-1.336058 0.60119,-2.841376 -0.11178,-1.392492 -0.28394,-1.863871 -1.01132,-2.769 -1.01243,-1.259826 -1.75656,-1.526472 -3.11997,-1.117983 -1.81296,0.543176 -1.86874,0.656275 -1.92067,3.894452 -0.0514,3.207517 0.21386,3.999321 1.59075,4.747699 0.94822,0.515387 1.31842,0.486698 2.28741,-0.177268 z M 164.7201,92.8474 c 0.0991,-0.90763 0.22509,-1.701075 0.28007,-1.763213 0.17196,-0.194354 0.87099,0.884028 0.87983,1.357299 0.0124,0.661984 -0.53607,1.747648 -0.96622,1.912713 -0.30868,0.118452 -0.34242,-0.144007 -0.19368,-1.506799 z M 37.674943,93.895469 c 0.964694,-1.66166 1.138243,-2.987519 0.485008,-3.705287 -0.290579,-0.319285 -0.671912,-0.858606 -0.847408,-1.198491 -0.175496,-0.339885 -0.362562,-0.574495 -0.415702,-0.521355 -0.05314,0.05314 -0.180465,1.629245 -0.282944,3.502456 -0.203377,3.717519 -0.09499,3.913921 1.061046,1.922677 z m 6.232291,0.884278 c 0.259433,-0.164076 0.445433,-0.932286 0.559557,-2.311053 0.162671,-1.965291 0.134987,-2.117754 -0.571812,-3.149141 -0.408517,-0.596123 -0.822053,-1.399795 -0.918969,-1.785937 -0.235977,-0.94021 -0.598097,-0.88507 -1.036444,0.157819 -0.198787,0.472943 -0.736446,1.375859 -1.194796,2.00648 l -0.833365,1.146584 0.470541,1.49925 c 0.258798,0.824587 0.737589,1.767139 1.063979,2.094561 0.614423,0.616364 1.77257,0.777024 2.461309,0.341437 z M 173.20295,94.030709 c 0.81724,-1.216909 1.22669,-3.236562 0.76203,-3.758794 -0.19461,-0.218717 -0.71365,-1.052511 -1.15342,-1.852876 -0.86127,-1.567458 -1.13361,-1.690506 -1.41476,-0.639222 -0.0991,0.370497 -0.48604,1.074663 -0.8599,1.564814 -0.57691,0.756372 -0.67974,1.16512 -0.67974,2.70205 0,2.331775 0.44094,3.04979 1.80257,2.935269 0.74241,-0.06244 1.09036,-0.27692 1.54322,-0.951241 z m 4.44781,-3.759586 c -0.15322,-1.644681 -0.22727,-1.871144 -0.43253,-1.322917 -0.13621,0.363802 -0.53247,0.959346 -0.88057,1.323431 -0.57705,0.603549 -0.60941,0.766539 -0.3667,1.846779 0.14641,0.651644 0.58688,1.603912 0.97881,2.116152 l 0.7126,0.931346 0.0866,-1.455208 c 0.0477,-0.800365 0.003,-2.348177 -0.0982,-3.439583 z M 40.101232,89.020509 c 0.251274,-0.251274 0.734626,-1.084935 1.074114,-1.852578 l 0.617252,-1.395715 -0.720821,-1.520859 c -0.878233,-1.852983 -0.899253,-1.880519 -1.069085,-1.40048 -0.07491,0.211729 -0.65392,0.938451 -1.286694,1.614938 -0.861049,0.920532 -1.150498,1.442717 -1.150498,2.075573 0,0.996663 0.603774,2.269873 1.256765,2.650205 0.634404,0.369507 0.754432,0.353451 1.278967,-0.171084 z m 7.62061,-1.634809 c 0.356544,-0.295906 0.335882,-0.437233 -0.180501,-1.234633 -0.707687,-1.092814 -0.979264,-1.142419 -0.982308,-0.179424 -0.0013,0.400183 -0.06665,1.382448 -0.145296,2.182813 l -0.142997,1.455208 0.524235,-0.944904 c 0.288328,-0.519698 0.705419,-1.095275 0.926867,-1.27906 z m 128.827908,-0.02723 0.47487,-1.406733 -0.74094,-0.684576 c -0.40752,-0.376517 -1.04858,-1.081268 -1.42457,-1.566114 l -0.68362,-0.881537 -0.73216,1.447074 -0.73215,1.447074 0.73003,1.626722 c 0.40152,0.894697 0.92022,1.734653 1.15268,1.866568 0.68944,0.39125 1.43889,-0.317046 1.95586,-1.848478 z m -5.90578,-0.583764 c 0.007,-0.424527 -0.96472,-1.176361 -1.20684,-0.934238 -0.0606,0.06057 -0.0298,0.87389 0.0684,1.807374 l 0.1785,1.697243 0.47652,-1.058333 c 0.26209,-0.582084 0.47965,-1.262504 0.48346,-1.512046 z M 44.955236,86.897685 c 0.01982,-1.198331 -0.107762,-1.313001 -0.841299,-0.756167 -0.578601,0.439221 -0.585692,1.008246 -0.02605,2.090473 0.399589,0.772721 0.454582,0.799889 0.642862,0.31759 0.113241,-0.290079 0.21426,-1.033432 0.224488,-1.651896 z M 167.8167,87.159558 c -0.0823,-0.908015 -0.22246,-1.650183 -0.31139,-1.649263 -0.0889,9.2e-4 -0.36949,0.366784 -0.62347,0.81303 -0.45401,0.797706 -0.45005,0.826736 0.23533,1.725321 0.38342,0.502679 0.73134,0.879737 0.77318,0.837905 0.0418,-0.04183 0.009,-0.818979 -0.0737,-1.726993 z M 52.382166,87.477383 c 0,-0.22687 -0.119063,-0.338906 -0.264584,-0.248969 -0.14552,0.08994 -0.264583,0.275558 -0.264583,0.41249 0,0.136933 0.119063,0.248969 0.264583,0.248969 0.145521,0 0.264584,-0.185621 0.264584,-0.41249 z m -0.556003,-1.373448 c 0.425075,-0.350865 0.621138,-0.94369 0.809418,-2.447396 0.136655,-1.091406 0.431438,-2.758281 0.655072,-3.704167 0.601892,-2.545765 0.582546,-2.639846 -0.506488,-2.46312 -1.188189,0.192817 -1.983688,-0.326309 -2.658979,-1.735192 -0.28663,-0.598006 -0.606217,-1.088649 -0.710194,-1.090319 -0.42914,-0.0069 -2.059909,5.924222 -2.059909,7.491893 0,1.674089 0.819061,3.562026 1.791068,4.128417 0.718134,0.418458 2.064454,0.327976 2.680012,-0.180116 z m -2.076555,-2.951758 c -0.361604,-0.675662 -0.351932,-1.424833 0.02919,-2.261313 0.495872,-1.08832 0.75128,-0.78304 0.75128,0.897977 0,1.664667 -0.320026,2.223691 -0.780474,1.363336 z m 115.366312,3.138819 c 0.98088,-0.524952 1.83083,-2.250775 1.83083,-3.717518 0,-1.910076 -1.46268,-7.648189 -1.94956,-7.648189 -0.0497,0 -0.42509,0.529536 -0.83419,1.176746 -0.87641,1.386512 -1.90621,1.932714 -2.77116,1.469807 -0.75015,-0.401468 -0.83755,-0.277554 -0.53885,0.763961 0.13596,0.474059 0.43821,2.192579 0.67167,3.818935 0.23346,1.626355 0.47999,3.148343 0.54785,3.382196 0.2474,0.852595 2.03275,1.294949 3.04341,0.754062 z m -1.34417,-4.395256 c 0,-1.744039 0.005,-1.75624 0.52916,-1.281909 0.85301,0.771965 0.61607,3.042708 -0.3175,3.042708 -0.11641,0 -0.21166,-0.792359 -0.21166,-1.760799 z M 44.541765,84.648727 c 0.450752,-0.409193 0.77719,-1.149872 1.044129,-2.369098 0.381631,-1.743076 0.377537,-1.788449 -0.236523,-2.620761 -0.343683,-0.465836 -0.816777,-1.424728 -1.05132,-2.13087 -0.234543,-0.706143 -0.525903,-1.222426 -0.647466,-1.147296 -0.121563,0.07513 -0.759112,0.890663 -1.416775,1.812296 -1.308229,1.833318 -1.334354,2.064097 -0.549716,4.85589 0.367069,1.306055 1.127972,2.195151 1.878648,2.195151 0.177787,0 0.618347,-0.26789 0.979023,-0.595312 z M 172.09847,84.366809 c 0.22078,-0.336955 0.59712,-1.405678 0.83631,-2.37494 0.40401,-1.637169 0.40384,-1.805009 -0.002,-2.363916 -0.24052,-0.330892 -0.82247,-1.16503 -1.29323,-1.853639 -0.47076,-0.68861 -0.92638,-1.254157 -1.01248,-1.256771 -0.0861,-0.0026 -0.29411,0.454357 -0.46223,1.015493 -0.16812,0.561136 -0.6115,1.470903 -0.98528,2.021703 -0.66333,0.977461 -0.67177,1.045341 -0.3523,2.832988 0.35689,1.99702 0.84827,2.591729 2.14143,2.591729 0.46991,0 0.87136,-0.217612 1.1302,-0.612647 z M 39.429022,81.379396 c 0.483267,-1.190693 0.54233,-1.579782 0.291891,-1.922903 -0.172683,-0.236589 -0.512047,-0.846881 -0.754143,-1.356204 l -0.440174,-0.926042 -0.589995,2.910417 c -0.324498,1.600729 -0.600276,3.313742 -0.61284,3.806694 l -0.02284,0.896277 0.761124,-0.957749 c 0.418618,-0.526762 1.03376,-1.629483 1.366982,-2.45049 z M 176.8961,83.32581 c -0.46459,-3.029572 -1.02697,-5.754688 -1.18759,-5.754688 -0.0985,0 -0.31993,0.327422 -0.49207,0.727605 -0.17214,0.400182 -0.44624,0.906197 -0.60912,1.124479 -0.22568,0.302444 -0.16012,0.759842 0.27553,1.922356 0.50877,1.357625 1.65847,3.104727 2.04311,3.104727 0.0784,0 0.065,-0.506015 -0.0299,-1.124479 z M 46.796184,76.954675 c 0.733972,-2.198495 0.744175,-2.293969 0.245145,-2.293969 -0.784024,0 -1.9772,-1.351107 -2.355923,-2.667757 -0.184892,-0.642786 -0.369199,-1.213283 -0.409571,-1.26777 -0.04037,-0.05449 -0.432767,0.203316 -0.87199,0.572898 -0.974954,0.82037 -2.273559,1.150081 -2.802089,0.71144 -0.552289,-0.458358 -0.97966,0.763559 -1.019803,2.915772 -0.0562,3.013029 0.625361,4.077986 1.766724,2.760551 1.595654,-1.841807 2.886371,-3.025061 3.299072,-3.024395 0.381521,6.16e-4 0.458375,0.255695 0.458375,1.521355 0,1.321946 0.553976,3.436083 0.82845,3.161609 0.05267,-0.05267 0.440395,-1.12805 0.86161,-2.389734 z M 169.18997,76.175421 c 0.0347,-0.840396 0.13626,-1.60114 0.22566,-1.690542 0.26753,-0.267529 1.93873,1.154205 2.85266,2.426832 0.88066,1.22629 1.521,1.473434 2.07818,0.80208 0.51321,-0.618382 0.63509,-2.406069 0.27858,-4.086024 l -0.32989,-1.554505 -0.96223,0.117156 c -0.75577,0.09202 -1.21768,-0.05571 -2.15285,-0.68856 l -1.19063,-0.805716 -0.20451,0.973084 c -0.26055,1.239736 -1.34917,2.675123 -2.18863,2.885816 -0.35726,0.08967 -0.64956,0.188444 -0.64956,0.219506 0,0.03106 0.17268,0.583701 0.38373,1.228088 0.21105,0.644386 0.52536,1.707393 0.69845,2.362236 l 0.31471,1.190625 0.39161,-0.926041 c 0.21538,-0.509323 0.42001,-1.613639 0.45472,-2.454035 z M 53.577421,76.097529 c 0.389929,-0.104788 0.734549,-0.727777 1.278651,-2.311491 0.40967,-1.192423 1.151727,-3.096542 1.649015,-4.231377 0.497289,-1.134835 0.904162,-2.173655 0.904162,-2.308489 0,-0.134835 -0.356892,-0.173776 -0.793094,-0.08653 -1.067101,0.21342 -1.508431,-0.213035 -2.011569,-1.94377 l -0.41807,-1.438111 -0.513174,0.877412 c -1.193204,2.040108 -3.151345,6.391041 -3.302933,7.339022 -0.186242,1.164695 0.204903,2.580873 0.98769,3.576025 0.522579,0.664352 1.152473,0.814016 2.219322,0.527314 z m -0.921363,-3.536096 c -0.375911,-0.702397 -0.343956,-1.2311 0.129777,-2.1472 0.597003,-1.154476 1.215634,-1.050274 0.884502,0.148986 -0.279708,1.013019 -0.144571,1.451653 0.447235,1.451653 0.546989,0 0.469942,0.463088 -0.130512,0.784441 -0.734421,0.39305 -1.020723,0.341882 -1.331002,-0.23788 z m 110.250062,3.056596 c 0.93148,-1.184188 1.26779,-2.705353 0.90117,-4.076101 -0.38353,-1.433976 -1.39339,-3.743494 -2.6659,-6.096841 l -0.90571,-1.674994 -0.32223,1.269065 c -0.38949,1.533962 -1.34777,2.47136 -2.33373,2.282881 l -0.68143,-0.130264 0.80276,1.770441 c 0.44151,0.973743 1.1671,2.862612 1.61241,4.197486 0.44532,1.334875 0.93081,2.575873 1.07887,2.757775 0.47014,0.577582 1.96388,0.399645 2.51379,-0.299448 z m -2.92674,-2.721212 c -0.31461,-0.31462 -0.18798,-0.552611 0.37196,-0.699038 0.49066,-0.128313 0.53065,-0.277656 0.38018,-1.419922 l -0.16815,-1.276526 0.67814,0.742358 c 0.72128,0.78957 0.89225,1.980419 0.36065,2.512017 -0.34224,0.34224 -1.33529,0.428593 -1.62278,0.141111 z M 48.129216,73.00706 c 0.188564,-0.480495 2.305531,-5.687667 2.850497,-7.011459 0.08953,-0.217469 -0.113318,-0.330729 -0.592322,-0.330729 -0.498502,0 -1.130639,0.37618 -2.002406,1.191615 -0.700663,0.655388 -1.573925,1.328301 -1.940582,1.495361 -0.825942,0.376324 -1.041799,1.012956 -0.82765,2.441003 0.341193,2.27524 1.936704,3.681348 2.512463,2.214209 z m 119.676264,0.132291 c 0.49135,-0.552753 0.98982,-2.259983 0.99187,-3.397113 0.001,-0.596272 -0.16263,-0.892198 -0.60508,-1.093795 -0.33361,-0.152002 -1.27304,-0.885489 -2.08762,-1.62997 -0.81458,-0.74448 -1.58343,-1.351778 -1.70854,-1.349549 -1.0644,0.01896 -0.75101,1.191097 1.89125,7.073552 0.43199,0.961752 0.90587,1.085636 1.51812,0.396875 z m 5.6623,-2.320662 c 0.15915,-0.414726 -1.16363,-4.332434 -1.99644,-5.912892 l -0.46969,-0.891367 -0.0482,1.361839 c -0.0265,0.749011 -0.24435,1.852073 -0.4841,2.451249 l -0.43589,1.089411 1.21936,1.152097 c 1.27149,1.201339 1.95311,1.432036 2.21496,0.749663 z M 42.883006,70.408972 c 1.230604,-0.876267 1.393973,-1.405411 0.896411,-2.903428 -0.23872,-0.71872 -0.412759,-1.694783 -0.386754,-2.16903 0.06864,-1.251725 0.01696,-1.439484 -0.273737,-0.994559 -0.42164,0.645338 -2.378427,5.744385 -2.378427,6.197769 0,0.603935 1.214855,0.529795 2.142507,-0.130752 z m 4.075202,-3.671975 c 2.105644,-1.808754 2.099402,-1.799838 1.76849,-2.526112 -0.172305,-0.378168 -0.313282,-1.226399 -0.313282,-1.884958 v -1.197379 l -0.706817,0.555982 c -0.388749,0.305791 -1.222186,0.685754 -1.852083,0.844364 l -1.145267,0.288381 v 2.03234 c 0,1.230717 0.125543,2.157883 0.318286,2.350626 0.372878,0.372878 1.183825,0.1783 1.930673,-0.463244 z M 169.57867,66.524768 c 0.59453,-2.140799 0.20535,-3.628109 -1.01977,-3.897189 -0.44046,-0.09674 -1.21145,-0.454548 -1.71332,-0.795128 l -0.9125,-0.619235 -0.10445,1.498224 c -0.0575,0.824023 -0.17675,1.676818 -0.26511,1.895099 -0.20012,0.494407 2.47781,2.910417 3.22594,2.910417 0.36819,0 0.5917,-0.280996 0.78921,-0.992188 z M 58.257327,65.466435 c 0.22051,-0.254662 0.896787,-1.322335 1.502839,-2.372608 0.606052,-1.050272 1.754224,-2.776679 2.551494,-3.836458 L 63.761241,57.330497 63.010742,57.13596 C 62.10886,56.902183 61.643068,55.996708 61.641268,54.473777 l -0.0013,-1.11203 -0.668452,0.79375 c -1.738798,2.064727 -4.662588,6.017411 -5.167251,6.98563 -0.463195,0.888659 -0.529033,1.323377 -0.374136,2.470361 0.262721,1.945395 0.511946,2.317967 1.550561,2.317967 0.504901,0 1.045497,-0.196065 1.276651,-0.46302 z M 58.114804,62.0489 c -0.383902,-0.383903 -0.141824,-1.538771 0.498535,-2.378325 0.921366,-1.207973 1.233461,-1.110975 0.758331,0.235688 -0.358754,1.016816 -0.355214,1.14991 0.03823,1.437604 0.238473,0.174376 0.355107,0.444031 0.259186,0.599234 -0.192216,0.311013 -1.275342,0.38474 -1.554283,0.105799 z m 100.369326,3.343814 c 0.15799,-0.295208 0.35469,-1.106112 0.43711,-1.802009 0.1897,-1.601722 -0.24305,-2.484033 -3.00732,-6.131478 -1.13523,-1.497923 -2.2274,-2.943346 -2.42705,-3.212051 -0.58611,-0.788832 -0.82762,-0.570735 -0.82762,0.747383 0,1.340131 -0.53447,2.203646 -1.36393,2.203646 -0.6827,0 -0.61339,0.30118 0.34171,1.484973 0.45643,0.565713 1.601,2.219194 2.5435,3.674402 0.9425,1.455209 1.8972,2.854193 2.12156,3.108855 0.56614,0.642609 1.82137,0.600201 2.18204,-0.07372 z m -3.44363,-3.216925 c -0.63411,-0.241151 -0.64087,-0.266741 -0.16338,-0.618854 0.43458,-0.320471 0.46302,-0.505445 0.22306,-1.450815 -0.20489,-0.807205 -0.19697,-1.057916 0.0311,-0.98313 0.45099,0.147895 1.49674,1.781685 1.49674,2.338367 0,0.671581 -0.7787,1.022022 -1.5875,0.714432 z m 8.91345,2.299917 c 1.03195,-0.722803 1.12733,-4.480745 0.12216,-4.812726 -0.24016,-0.07932 -1.34421,-0.558931 -2.45345,-1.065807 -1.92838,-0.881193 -2.92316,-1.043919 -2.89109,-0.472926 0.0222,0.3945 4.21459,6.746875 4.45279,6.746875 0.11278,0 0.4591,-0.177937 0.76959,-0.395416 z M 52.561135,63.349768 c 0.401742,-0.691224 1.299714,-2.14974 1.995492,-3.241146 0.695778,-1.091406 1.265067,-2.073672 1.265086,-2.182813 7.1e-5,-0.390696 -1.651518,-0.189168 -2.34037,0.285575 -0.386266,0.266206 -1.375377,0.751603 -2.198024,1.078659 -1.338538,0.532157 -1.514015,0.69216 -1.669796,1.522546 -0.345668,1.842568 0.463371,3.79395 1.572964,3.79395 0.489619,0 0.819486,-0.301581 1.374648,-1.256771 z m -5.559233,-2.625446 c 0.606116,-0.351817 1.218412,-0.783103 1.360659,-0.958413 0.142246,-0.17531 0.242371,-1.311622 0.222499,-2.525138 l -0.03613,-2.206393 -0.680923,0.815636 c -0.818641,0.980599 -3.158757,5.096603 -3.158757,5.555901 0,0.416145 0.822966,0.171482 2.292652,-0.681593 z m 122.590678,0.663763 c 0,-0.475747 -2.31505,-4.486218 -3.12368,-5.411311 l -0.72075,-0.824556 0.004,2.172958 c 0.005,2.528074 0.18473,2.846441 2.12066,3.749008 1.51033,0.704146 1.71979,0.742377 1.71979,0.313901 z m -116.961197,-3.901822 1.439843,-0.745312 0.05784,-1.774973 c 0.05084,-1.560067 0.0046,-1.753989 -0.38151,-1.601664 -0.241643,0.09532 -1.052339,0.238442 -1.801547,0.318051 -1.529971,0.16257 -1.837583,0.540925 -2.121016,2.608793 -0.298502,2.177805 0.3634,2.459677 2.806387,1.195105 z M 164.6458,57.899736 c 0.20416,-0.532048 -0.0781,-2.308254 -0.51568,-3.245568 -0.3411,-0.730585 -0.54117,-0.840852 -1.76067,-0.970395 -0.7567,-0.08038 -1.55442,-0.216637 -1.7727,-0.302786 -0.32993,-0.130212 -0.39429,0.145076 -0.38152,1.631854 l 0.0154,1.788489 1.43985,0.717638 c 1.57563,0.78531 2.76188,0.937118 2.97537,0.380768 z M 59.076639,53.906363 c 1.389492,-1.664992 2.401042,-3.069028 2.247888,-3.120079 -0.153154,-0.05105 -1.408706,0.15906 -2.790117,0.466914 -2.901305,0.64657 -3.217127,0.962448 -3.232452,3.233028 -0.0071,1.044858 0.12175,1.520188 0.519791,1.918229 0.291042,0.291042 0.574026,0.529167 0.628853,0.529167 0.05483,0 1.236544,-1.362266 2.626037,-3.027259 z m 99.615111,2.709759 c 0.40224,-0.402243 0.40981,-2.35569 0.0142,-3.675968 -0.28568,-0.953509 -0.38813,-1.029772 -1.76815,-1.316263 -0.80569,-0.167262 -1.9014,-0.458121 -2.43491,-0.646355 -1.95255,-0.688898 -1.78532,-0.0781 0.8262,3.017785 1.36324,1.616065 2.60607,2.938301 2.76186,2.938301 0.15578,0 0.42612,-0.142875 0.60075,-0.3175 z M 67.615653,53.031018 c 1.801162,-1.855391 3.277654,-3.455708 3.281093,-3.55626 0.0034,-0.100553 -0.11281,-0.256408 -0.258331,-0.346345 -0.533137,-0.329496 -0.257204,-1.503292 0.541039,-2.301535 0.956721,-0.956721 1.246696,-0.837522 0.670968,0.275813 -0.416775,0.805954 -0.329375,1.628847 0.173001,1.628847 0.290431,0 3.906659,-2.612268 3.906659,-2.822068 0,-0.06938 -0.178594,-0.30474 -0.396875,-0.523021 -0.503402,-0.503401 -0.502417,-1.18181 0.0035,-2.392575 0.220191,-0.526992 0.347851,-1.010664 0.283689,-1.074826 -0.210917,-0.210917 -5.453435,3.393735 -7.788639,5.355314 -1.258458,1.057109 -2.913184,2.584207 -3.677169,3.39355 -1.381777,1.463816 -1.389062,1.480538 -1.389062,3.188265 0,1.67626 0.377593,2.548278 1.103431,2.548278 0.149535,0 1.745561,-1.518047 3.546723,-3.373437 z m -1.957777,-0.296365 c -0.476184,-0.301908 0.189323,-1.91559 1.034023,-2.507241 0.773981,-0.542118 0.834868,-0.462571 0.442201,0.577722 -0.245526,0.650472 -0.247864,0.963763 -0.01004,1.344584 0.263482,0.421902 0.22282,0.519907 -0.270599,0.652219 -0.743777,0.199446 -0.77792,0.197525 -1.195588,-0.06728 z m 85.699234,2.546263 c 0.0881,-0.545186 0.0775,-1.536328 -0.0236,-2.202538 -0.15518,-1.02249 -0.44765,-1.479539 -1.87643,-2.932297 -0.93093,-0.946553 -2.56207,-2.425316 -3.62475,-3.286141 -1.99428,-1.615457 -7.18148,-5.11025 -7.3439,-4.947831 -0.0505,0.05046 0.11101,0.656391 0.35882,1.346515 0.42281,1.177473 0.4231,1.302679 0.005,2.032466 l -0.44586,0.777695 1.75707,1.228279 c 0.96639,0.675554 1.8958,1.281516 2.06536,1.346583 0.51277,0.196766 0.67328,-0.719167 0.2683,-1.530973 -0.20918,-0.419312 -0.29688,-0.762386 -0.1949,-0.762386 0.45595,0 1.31805,0.843801 1.62894,1.594356 0.29383,0.709389 0.28034,0.881682 -0.0987,1.260741 -0.40903,0.409025 -0.2081,0.67081 2.93725,3.826811 3.71549,3.72806 4.30218,4.015632 4.58773,2.24872 z m -4.10115,-2.547182 c -0.0889,-0.143805 -0.0477,-0.331854 0.0915,-0.417887 0.15926,-0.09842 0.14952,-0.45356 -0.0263,-0.95783 -0.15366,-0.440774 -0.19624,-0.884544 -0.0946,-0.986156 0.28097,-0.280971 1.77099,1.514615 1.67541,2.018995 -0.093,0.490854 -1.38786,0.76058 -1.64601,0.342878 z m -96.858169,-0.03345 c 0.08994,-0.145521 0.04446,-0.264584 -0.101062,-0.264584 -0.145521,0 -0.338168,0.119063 -0.428105,0.264584 -0.08994,0.14552 -0.04446,0.264583 0.101062,0.264583 0.145521,0 0.338168,-0.119063 0.428105,-0.264583 z M 163.08736,51.559695 c -0.25073,-0.80393 -0.71619,-1.434588 -2.14922,-2.912029 -1.22105,-1.258905 -2.13251,-1.917372 -2.35125,-1.698628 -0.0619,0.06185 0.0674,0.622248 0.28724,1.245327 0.21983,0.623079 0.3997,1.591094 0.3997,2.151144 0,0.880802 0.11586,1.078187 0.85818,1.462057 1.95594,1.011458 3.31264,0.897669 2.95535,-0.247871 z M 53.90352,51.913664 c 1.116979,-0.507016 1.124486,-0.519771 1.125468,-1.912419 6.56e-4,-0.930544 0.177293,-1.691158 0.525278,-2.261894 0.488113,-0.800565 0.492038,-0.859896 0.05687,-0.859896 -0.466664,0 -3.028571,2.458629 -3.852186,3.696892 -0.239317,0.359802 -0.435122,0.925349 -0.435122,1.256771 0,0.773961 0.984353,0.804695 2.579688,0.08055 z m 104.22392,-1.74678 c 0.23142,-0.603067 -0.3547,-2.350221 -1.07664,-3.209359 -0.57957,-0.689707 -0.73567,-0.733721 -2.31718,-0.653331 l -1.69574,0.0862 0.39469,1.707724 c 0.39205,1.696307 0.40273,1.710202 1.59662,2.078187 1.65789,0.510998 2.89999,0.507222 3.09825,-0.0094 z M 59.571592,50.046195 c 0.878527,-0.244009 0.998587,-0.389771 1.251888,-1.519879 0.154094,-0.687492 0.348047,-1.488111 0.431006,-1.779153 0.140287,-0.492156 0.03029,-0.527383 -1.572664,-0.503677 -0.947926,0.01402 -1.893524,0.166596 -2.101331,0.339059 -0.53673,0.445447 -1.558667,2.922174 -1.3886,3.365361 0.17039,0.444028 1.948703,0.495745 3.379701,0.09829 z m 8.024115,-4.616334 c 0.575016,-0.516936 0.647927,-0.662054 0.264583,-0.526608 -0.291041,0.102833 -1.396689,0.248294 -2.456994,0.323246 l -1.927828,0.136277 -0.665237,1.135141 c -0.714188,1.218669 -1.070389,2.738868 -0.804255,3.432403 0.128955,0.336053 0.662443,-0.02519 2.480139,-1.679366 1.273713,-1.159134 2.673029,-2.428625 3.109592,-2.821093 z m 84.711033,3.25991 c -0.0921,-0.777988 -0.44238,-1.788941 -0.81468,-2.351527 -0.63831,-0.964543 -0.69677,-0.989549 -2.58721,-1.106556 -1.06378,-0.06584 -2.17227,-0.206822 -2.46331,-0.313291 -0.29104,-0.106468 0.007,0.260651 0.66146,0.81582 0.65484,0.55517 1.96453,1.752221 2.91041,2.660114 2.16436,2.077423 2.50965,2.121905 2.29333,0.29544 z M 56.999924,45.514069 c 0.399456,-0.182004 0.673908,-0.525422 0.673908,-0.843251 0,-0.488706 -0.0703,-0.468843 -0.79375,0.224262 -1.078879,1.033632 -1.055478,1.154501 0.119842,0.618989 z M 157.79363,45.160417 c -0.42282,-0.363387 -0.81096,-0.534435 -0.86254,-0.380107 -0.11104,0.332218 0.72845,1.020383 1.25941,1.032397 0.20818,0.0047 0.0335,-0.28244 -0.39687,-0.65229 z M 62.589566,44.480825 c 0.188055,-0.156072 0.420641,-0.662494 0.516857,-1.125381 0.09622,-0.462888 0.405856,-1.242713 0.688089,-1.732945 l 0.513152,-0.891332 -1.772907,0.11289 c -1.671072,0.106406 -1.823599,0.171534 -2.655457,1.133851 -1.02512,1.185889 -1.260732,2.931289 -0.41953,3.107844 0.648816,0.136177 2.718924,-0.263934 3.129796,-0.604927 z m 92.871624,-0.115599 c 0.20202,-0.804926 -0.48154,-2.065944 -1.56987,-2.896052 -0.68189,-0.520102 -1.19542,-0.675136 -2.2363,-0.675136 h -1.35115 l 0.51042,1.12448 c 0.28073,0.618463 0.51303,1.38818 0.51623,1.710482 0.007,0.692928 0.78198,1.173777 2.25477,1.398781 1.34695,0.205778 1.68821,0.08525 1.8759,-0.662555 z M 68.204249,43.916122 c 0.174625,-0.174625 0.3175,-0.536556 0.3175,-0.804291 0,-0.267735 0.240544,-0.958297 0.534544,-1.534583 l 0.534544,-1.047793 h -1.751308 c -1.608215,0 -1.812436,0.06544 -2.499469,0.80091 -0.761297,0.814972 -1.226623,2.141499 -0.923343,2.632218 0.235147,0.380475 3.399411,0.341659 3.787532,-0.04646 z m 81.706401,-0.806979 c -0.11704,-0.772439 -0.41885,-1.352271 -0.96403,-1.852084 -0.69731,-0.639288 -1.0045,-0.727604 -2.53084,-0.727604 h -1.73719 l 0.55074,0.891126 c 0.30291,0.490119 0.55075,1.136458 0.55075,1.436309 0,1.002769 0.69707,1.376732 2.56626,1.376732 h 1.7347 z M 74.045885,41.032547 75.204397,40.397163 73.65034,40.226862 c -1.882385,-0.206281 -2.79884,0.306725 -3.566112,1.996209 -0.793423,1.747068 -0.607568,1.845498 1.1495,0.608782 0.909505,-0.640157 2.174976,-1.449844 2.812157,-1.799306 z m 70.264015,1.300608 c -0.9774,-1.932898 -1.72886,-2.314829 -3.75657,-1.909288 -0.77591,0.155183 -0.73705,0.198342 1.62057,1.799857 2.49627,1.695693 2.94988,1.718932 2.136,0.109431 z M 64.715234,39.471122 c 0.638263,0 0.955796,-0.139227 1.056009,-0.463021 0.07882,-0.254662 0.32052,-0.869354 0.537118,-1.365982 l 0.393816,-0.902961 -0.611568,0.445426 c -0.336363,0.244985 -1.177116,0.810358 -1.868339,1.256385 -1.194669,0.770886 -1.73156,1.533544 -0.838257,1.190752 0.230183,-0.08833 0.829233,-0.160599 1.331221,-0.160599 z m 12.025992,-0.0093 c 0.281475,-0.150641 0.514387,-0.537594 0.517583,-0.859896 0.0032,-0.322302 0.2355,-1.092019 0.516231,-1.710483 l 0.51042,-1.124479 h -1.957974 c -1.909405,0 -1.974716,0.02195 -2.632898,0.88487 -0.934343,1.224987 -0.911588,2.424179 0.05268,2.77636 0.972259,0.355099 2.364072,0.370732 2.993957,0.03363 z M 141.18733,39.15018 c 0.46511,-0.465113 0.0223,-2.125383 -0.76172,-2.855781 -0.45639,-0.425196 -0.93393,-0.527444 -2.46335,-0.527444 h -1.8972 l 0.6159,1.256771 c 0.33875,0.691224 0.61963,1.441318 0.62418,1.666875 0.0167,0.828591 0.61459,1.099567 2.1007,0.9521 0.78703,-0.0781 1.5887,-0.299732 1.78149,-0.492521 z m 10.41358,0.47381 c 0,-0.07323 -0.68461,-0.593103 -1.52135,-1.155267 -2.27653,-1.529475 -2.28386,-1.532863 -1.94463,-0.899008 0.16004,0.299036 0.29098,0.840904 0.29098,1.204152 0,0.696588 0.1727,0.768773 2.18282,0.912387 0.5457,0.03899 0.99218,0.01097 0.99218,-0.06226 z M 71.214953,39.216531 c 0.09882,-0.0055 0.36827,-0.658777 0.598789,-1.451735 0.230519,-0.792958 0.536624,-1.514359 0.680233,-1.603115 0.616954,-0.381298 0.146303,-0.567893 -1.524831,-0.604534 -1.070749,-0.02348 -1.957944,0.09203 -2.215467,0.288441 -0.648318,0.494469 -1.552738,2.094909 -1.553856,2.749666 -8.09e-4,0.473806 0.179751,0.59932 0.991198,0.689016 0.545704,0.06032 1.408907,0.072 1.91823,0.02596 0.509322,-0.04604 1.00689,-0.08821 1.105704,-0.0937 z m 76.034067,-0.06782 c 0.27122,-0.271221 -0.4875,-2.033506 -1.14789,-2.666195 -0.72751,-0.697001 -1.74251,-0.901137 -3.79079,-0.762404 l -0.69162,0.04684 0.62547,1.235466 c 0.34401,0.679506 0.62547,1.397718 0.62547,1.596026 0,0.579692 1.07467,0.879742 2.73288,0.76303 0.84825,-0.0597 1.58916,-0.155448 1.64648,-0.212767 z m -11.52311,-1.204805 c 0,-0.257885 -0.36922,-0.916814 -0.82049,-1.464285 l -0.8205,-0.995402 -2.21983,0.07522 c -1.2209,0.04137 -2.2209,0.154812 -2.22221,0.252088 -0.001,0.09728 0.74176,0.43029 1.65126,0.74003 0.90951,0.30974 2.18943,0.849848 2.84427,1.200241 1.44473,0.773041 1.5875,0.790318 1.5875,0.192105 z m -30.3651,-3.036846 c 0.0647,-0.618463 0.1026,-1.14866 0.0843,-1.178214 -0.0183,-0.02956 -0.65527,0.1286 -1.41549,0.351454 -0.76023,0.222854 -1.31441,0.514925 -1.23152,0.649047 0.0829,0.134123 0.29251,0.246506 0.46582,0.249742 0.17332,0.0032 0.61278,0.238713 0.97658,0.523284 0.91641,0.716829 0.98705,0.679291 1.12031,-0.595313 z m 27.32562,-0.368577 c 0.81715,-0.313571 0.15732,-2.734344 -0.85074,-3.121174 -0.53836,-0.206586 -3.78269,0.375267 -3.78269,0.678405 0,0.110236 0.13255,0.282352 0.29456,0.38248 0.16201,0.100128 0.53087,0.716258 0.81969,1.369177 l 0.52512,1.187126 1.3002,-0.172477 c 0.71511,-0.09486 1.47735,-0.240455 1.69386,-0.323537 z M 73.973326,34.245601 c 0.07882,-0.254662 0.309135,-0.84548 0.511819,-1.31293 0.361155,-0.83293 0.356525,-0.84535 -0.231763,-0.621683 -0.330154,0.125524 -1.352726,0.645268 -2.272383,1.154985 -1.818063,1.007658 -1.746874,1.155408 0.583949,1.211957 0.990771,0.02404 1.296147,-0.0697 1.408378,-0.432329 z m 5.509732,0.04725 c 0.228675,-0.228676 0.415774,-0.590607 0.415774,-0.804291 0,-0.213684 0.240544,-0.860023 0.534544,-1.436309 l 0.534544,-1.047793 h -1.883599 c -1.767403,0 -1.931119,0.05087 -2.653921,0.824632 -0.82277,0.880778 -1.182093,1.835632 -0.934032,2.482068 0.219777,0.572728 3.410306,0.558076 3.98669,-0.01831 z m 59.417852,-0.319105 c 0,-0.779678 -0.56158,-1.748909 -1.44707,-2.497465 -0.39043,-0.330056 -1.03152,-0.456624 -2.34529,-0.463021 -0.99439,-0.0048 -1.76222,0.08049 -1.70628,0.189635 0.30249,0.590232 1.21611,2.643881 1.35363,3.042709 0.13305,0.385854 0.49175,0.463021 2.15233,0.463021 h 1.99268 z m 4.89986,0.478487 c -0.15697,-0.253978 -3.63787,-2.124858 -3.95345,-2.124858 -0.0688,0 -0.002,0.386953 0.14899,0.859895 0.15077,0.472943 0.31209,0.989602 0.3585,1.148131 0.0477,0.162966 0.85327,0.313127 1.85353,0.345509 1.21259,0.03926 1.71356,-0.03269 1.59243,-0.228677 z m -9.54518,-4.48165 c 0.14576,-0.23584 -3.01636,-1.446802 -3.22726,-1.235907 -0.25262,0.25262 0.51241,1.18399 1.05898,1.289231 1.09845,0.211505 2.01859,0.188876 2.16828,-0.05332 z M 83.185035,29.366772 c 0.223185,-0.318642 0.361796,-0.623345 0.308024,-0.677117 -0.132859,-0.132859 -2.834898,0.672012 -3.329644,0.99182 -0.282007,0.182292 0.03911,0.257716 1.109476,0.260595 1.252565,0.0034 1.574718,-0.09356 1.912144,-0.575298 z M 106.55794,135.99251 c -0.0596,-1.06306 -0.12983,-5.74284 -0.15605,-10.39951 -0.059,-10.48222 -0.26461,-14.68438 -0.71839,-14.68438 -0.34674,0 -0.89866,2.68523 -1.44114,7.01146 -0.16423,1.30969 -0.57826,4.16719 -0.92006,6.35 -0.34181,2.18281 -0.69906,4.5343 -0.79389,5.22552 -0.11484,0.83706 -0.29955,1.25677 -0.55308,1.25677 -0.20937,0 -0.38067,-0.13738 -0.38067,-0.30529 0,-0.38582 1.80429,-17.78367 1.96455,-18.94314 0.0949,-0.6868 0.026,-0.8599 -0.34246,-0.8599 -0.3772,0 -0.75993,1.09762 -2.09886,6.01927 -2.287408,8.40809 -5.035676,18.17275 -5.340024,18.97324 -0.271028,0.71286 -0.797785,0.91804 -0.797785,0.31076 0,-0.6044 1.192667,-5.64545 3.698699,-15.63331 1.312695,-5.23179 2.38672,-9.7264 2.38672,-9.98803 0,-0.26162 -0.1786,-0.47568 -0.39688,-0.47568 -0.21828,0 -0.39687,0.11097 -0.39687,0.24661 0,0.3437 -7.405166,17.2731 -7.731742,17.676 -0.146145,0.1803 -0.366744,0.26538 -0.49022,0.18906 -0.280717,-0.17349 1.19202,-4.22008 6.103197,-16.76954 0.724928,-1.8524 0.78976,-2.40046 0.283958,-2.40046 -0.118841,0 -0.971163,1.27992 -1.894048,2.84427 -3.0545,5.17757 -11.937427,20.04014 -12.047158,20.15684 -0.0593,0.0631 -0.240378,-0.0179 -0.402408,-0.17995 -0.304144,-0.30414 0.274676,-1.43639 5.376955,-10.51804 1.226355,-2.18281 2.962282,-5.29091 3.857617,-6.90688 3.615245,-6.52507 3.587499,-6.46359 2.908951,-6.446 -0.181901,0.005 -3.009635,3.35981 -6.283854,7.45576 -3.274219,4.09596 -6.101953,7.49531 -6.283854,7.5541 -0.788005,0.25472 -0.08958,-0.90992 3.532355,-5.89031 6.368638,-8.75728 7.504865,-10.42546 7.220628,-10.60113 -0.361112,-0.22318 -0.601974,-0.009 -6.850379,6.10398 -13.155117,12.86907 -12.671314,12.42039 -12.860639,11.92702 -0.132886,-0.3463 0.359593,-1.01555 1.931239,-2.62444 1.160287,-1.18778 3.885705,-4.00507 6.056485,-6.26064 2.17078,-2.25557 5.369596,-5.55963 7.10848,-7.34235 2.390799,-2.45107 3.087094,-3.31582 2.855979,-3.54694 -0.231115,-0.23111 -0.64714,-0.0476 -1.706399,0.75276 -0.770423,0.58211 -3.067645,2.26702 -5.104937,3.74425 -2.037291,1.47722 -4.999478,3.63886 -6.582638,4.80365 -2.875867,2.11588 -3.453472,2.42608 -3.292491,1.76819 0.105881,-0.4327 1.898117,-1.94226 9.429087,-7.94192 5.126518,-4.08412 6.621815,-5.5557 5.342715,-5.25797 -0.366326,0.0853 -13.07168,7.0973 -19.09578,10.53889 -2.134197,1.21927 -4.009431,2.21686 -4.167188,2.21686 -1.146555,0 0.729904,-1.34677 7.584525,-5.44354 10.771555,-6.43779 11.328817,-6.76714 13.361458,-7.89688 1.726405,-0.95954 2.044696,-1.2851 1.553314,-1.58879 -0.127943,-0.0791 -4.429441,1.47028 -9.558885,3.443 -5.634814,2.16708 -9.422013,3.49102 -9.568173,3.34486 -0.14616,-0.14616 -0.106567,-0.34532 0.100031,-0.50316 0.188068,-0.14368 3.318505,-1.55434 6.956526,-3.13479 3.63802,-1.58045 7.626614,-3.31333 8.863541,-3.850856 1.247442,-0.542093 2.248958,-1.138243 2.248958,-1.338686 0,-0.506252 -0.18149,-0.469395 -10.186458,2.068672 -7.63022,1.93564 -14.08611,3.54091 -15.659474,3.89376 -0.597183,0.13393 -0.831492,-0.54422 -0.264965,-0.76688 0.513993,-0.202 4.575122,-1.36794 11.029648,-3.16658 2.473854,-0.689365 6.236215,-1.768351 8.360801,-2.397741 2.124587,-0.62939 4.306983,-1.227659 4.84977,-1.329486 0.847053,-0.158908 1.494206,-0.725382 1.17576,-1.029182 -0.09624,-0.09181 -3.733565,0.264205 -14.736645,1.442409 -2.957568,0.316694 -5.449943,0.503262 -5.538611,0.414594 -0.552997,-0.552997 0.665953,-0.8312 8.66705,-1.978093 9.352363,-1.340586 11.377083,-1.698547 11.377083,-2.011416 0,-0.451441 -3.016901,-0.660802 -9.522161,-0.660802 -9.623633,0 -17.465339,-0.306188 -17.465339,-0.681952 0,-0.413838 1.55064,-0.50081 10.847917,-0.608438 3.856302,-0.04464 7.309114,-0.114558 7.672916,-0.155371 0.363802,-0.04081 2.41763,-0.0894 4.564063,-0.107972 3.029289,-0.02621 3.902604,-0.111541 3.902604,-0.381317 0,-0.249465 -1.624064,-0.595151 -5.754688,-1.2249 -11.422759,-1.741496 -14.17194,-2.248059 -14.300949,-2.635087 -0.101893,-0.305678 0.242988,-0.343391 1.962364,-0.214583 1.69026,0.126626 10.887163,1.151928 17.101085,1.906486 0.987068,0.119859 1.256771,0.07102 1.256771,-0.227608 0,-0.239893 -0.659121,-0.578718 -1.785937,-0.918071 -2.058635,-0.61998 -13.593084,-3.910587 -19.711049,-5.623269 -3.368798,-0.943071 -4.166857,-1.256099 -4.167188,-1.634522 -3.07e-4,-0.35143 0.147931,-0.432439 0.594904,-0.325103 0.327422,0.07863 6.012656,1.497958 12.633854,3.154069 13.933867,3.485176 13.096874,3.304437 13.096874,2.828121 0,-0.216463 -1.303474,-0.931652 -3.175,-1.742057 -6.047639,-2.618736 -13.761741,-6.026009 -14.516338,-6.411779 -0.525286,-0.26854 -0.673435,-0.472082 -0.482547,-0.66297 0.190888,-0.190888 0.707915,-0.104481 1.684047,0.281443 0.774724,0.306295 3.313589,1.286575 5.641922,2.1784 2.328333,0.891825 5.884198,2.269677 7.901922,3.061894 2.017724,0.792217 3.729073,1.37991 3.802998,1.305984 0.370005,-0.370004 -0.486202,-1.024089 -4.335274,-3.311861 -2.307055,-1.371243 -5.504334,-3.288094 -7.105063,-4.259667 -1.600729,-0.971574 -4.839561,-2.885741 -7.197404,-4.253705 -3.84232,-2.229222 -5.000262,-3.148666 -3.965411,-3.148666 0.190607,0 3.732716,1.883587 7.871354,4.185748 10.202851,5.675446 10.567503,5.887296 10.567503,6.13936 0,0.463497 0.861464,1.051985 1.540253,1.052184 0.759336,2.24e-4 3.862495,1.368253 4.585793,2.021649 0.404922,0.36579 0.390013,0.477632 -0.200201,1.501787 -0.944036,1.638118 -1.869226,4.801787 -2.078832,7.108526 -0.390423,4.296658 1.385015,9.483374 4.360711,12.739254 2.566675,2.80835 5.578063,4.57293 9.345541,5.47619 3.96235,0.94998 7.43555,0.49478 11.54769,-1.51343 5.92041,-2.8913 9.52821,-8.783093 9.52821,-15.560226 0,-4.078984 -0.91697,-6.882084 -3.46211,-10.583333 -1.19906,-1.743723 -2.06676,-4.177809 -1.32612,-3.720072 0.19536,0.120745 2.8436,-2.264564 7.08092,-6.377898 11.9493,-11.599676 12.65627,-12.230134 12.65627,-11.286581 0,0.270835 -3.65766,4.12488 -15.58115,16.417716 -2.14782,2.214358 -2.77651,3.010919 -2.46938,3.128774 0.26543,0.101858 1.66703,-0.77708 3.93961,-2.470533 6.44691,-4.804028 12.38638,-9.052865 12.65504,-9.052865 0.92746,0 -0.5175,1.354508 -6.68006,6.261898 -3.81992,3.041893 -7.26899,5.764642 -7.6646,6.050554 -0.75229,0.543692 -0.97196,1.182892 -0.40519,1.179066 0.2901,-0.002 4.28961,-2.186777 19.4643,-10.632809 2.1434,-1.192991 3.95974,-2.042197 4.18395,-1.956158 0.58956,0.226234 0.30194,0.504231 -1.81535,1.754621 -1.05765,0.624609 -5.01863,2.999114 -8.80217,5.276679 -3.78354,2.277565 -8.04003,4.829046 -9.45886,5.669958 -1.41882,0.840912 -2.57968,1.69594 -2.57968,1.900061 0,0.204122 0.0541,0.37113 0.12032,0.37113 0.0662,0 2.95345,-1.119315 6.41615,-2.487368 6.86933,-2.713953 12.00723,-4.656382 12.31654,-4.656382 1.59662,0 -5.38053,3.417952 -16.07489,7.874741 -1.05243,0.438593 -1.85208,0.932913 -1.85208,1.144904 0,0.465443 -0.43909,0.543755 5.82083,-1.038143 17.00834,-4.298048 20.34364,-5.067928 20.54487,-4.742332 0.11159,0.180555 0.11855,0.41192 0.0155,0.514144 -0.1642,0.162833 -6.17251,1.900145 -14.47492,4.185447 -6.95674,1.914896 -11.33734,3.178087 -11.46543,3.306183 -0.0775,0.07753 -0.0298,0.244352 0.10598,0.370721 0.2538,0.236142 1.87787,0.08565 13.41601,-1.243172 5.36724,-0.618134 6.60652,-0.692161 6.84178,-0.408689 0.22022,0.265351 0.12212,0.408975 -0.42014,0.615145 -0.38909,0.147932 -0.89396,0.268968 -1.12192,0.268968 -0.22796,0 -2.27403,0.293743 -4.54683,0.652763 -4.86516,0.768517 -10.70767,1.632238 -12.66518,1.872345 -0.90084,0.110496 -1.38906,0.295154 -1.38906,0.525374 0,0.395617 2.93471,0.497104 17.52882,0.606177 8.56265,0.064 9.72326,0.152568 9.72326,0.742039 0,0.274079 -0.47309,0.366883 -1.91823,0.376294 -1.05503,0.0069 -2.75167,0.06218 -3.77031,0.122914 -1.01865,0.06073 -6.24249,0.169191 -11.60855,0.24102 -5.36605,0.07183 -9.82296,0.197096 -9.90423,0.278371 -0.41891,0.418903 0.85922,0.724583 6.04139,1.444872 3.12499,0.434354 7.52315,1.092119 9.77368,1.4617 2.25053,0.369581 4.1853,0.671965 4.29948,0.671965 0.11418,0 0.2076,0.178593 0.2076,0.396875 0,0.540196 -0.14119,0.532747 -9.75617,-0.514728 -4.60228,-0.501381 -8.89274,-0.947865 -9.53434,-0.992187 -1.69506,-0.117094 -1.67799,0.451595 0.0277,0.922075 7.7322,2.132802 23.52033,6.617662 24.09148,6.843562 0.73734,0.29162 0.91698,0.60447 0.49635,0.86443 -0.12719,0.0786 -5.92072,-1.28359 -12.87451,-3.0271 -6.95379,-1.743504 -12.8723,-3.170011 -13.15225,-3.170011 -0.27995,0 -0.46386,0.135419 -0.40869,0.30093 0.0816,0.244686 12.23758,5.731811 16.87712,7.618191 1.04876,0.42641 1.80183,1.3413 1.10405,1.3413 -0.14171,0 -2.2638,-0.77936 -4.71575,-1.7319 -2.45195,-0.95254 -5.55811,-2.14765 -6.90258,-2.6558 -1.34447,-0.50816 -3.30901,-1.28607 -4.36563,-1.72871 -2.62052,-1.09776 -2.75207,-1.127652 -2.92936,-0.66562 -0.1143,0.29785 0.55556,0.81665 2.5432,1.96969 1.4841,0.86093 5.37727,3.14687 8.65149,5.07986 3.27422,1.93299 7.16111,4.214 8.63755,5.06892 2.99082,1.73182 3.5763,2.23504 2.90159,2.49395 -0.2693,0.10334 -2.74466,-1.13005 -6.71052,-3.34364 -3.45611,-1.92906 -7.83164,-4.36988 -9.72342,-5.42404 -4.58607,-2.55551 -5.11985,-2.85718 -6.30904,-3.56567 -0.83933,-0.50005 -1.05735,-0.54145 -1.24575,-0.23661 -0.12561,0.20324 -0.14404,0.4397 -0.041,0.52548 0.62554,0.52054 6.00327,4.79814 8.91867,7.09417 5.45391,4.29524 6.47838,5.16794 6.4804,5.52044 0.001,0.1819 -0.10334,0.33073 -0.23195,0.33073 -0.23621,0 -7.31606,-5.07079 -13.08304,-9.37044 -2.28872,-1.70638 -3.20918,-2.25517 -3.42332,-2.04102 -0.32291,0.32291 -0.645,-0.0279 11.05166,12.03813 3.92906,4.05315 7.1798,7.46434 7.22386,7.58043 0.0441,0.11609 -0.0535,0.29364 -0.21676,0.39455 -0.35296,0.21814 -2.13217,-1.45172 -16.1925,-15.19738 -2.64178,-2.58265 -3.67138,-3.43789 -3.78436,-3.14347 -0.14332,0.37349 1.93253,3.36471 9.39725,13.54107 1.90857,2.60187 2.26239,3.34188 1.59787,3.34188 -0.12299,0 -0.62198,-0.52264 -1.10886,-1.16142 -3.58037,-4.69731 -11.4384,-14.18442 -11.74876,-14.18442 -0.2097,0 -0.38128,0.0687 -0.38128,0.15267 0,0.14355 2.11124,3.96106 9.7523,17.63393 1.76675,3.16142 3.21228,5.8701 3.21228,6.01927 0,0.14917 -0.17099,0.27122 -0.37999,0.27122 -0.37981,0 -1.0417,-1.05296 -6.90217,-10.98021 -4.54226,-7.69428 -7.02137,-11.75264 -7.27505,-11.90943 -0.6845,-0.42303 -0.36733,0.86809 1.21865,4.96085 0.97343,2.51203 2.57654,6.64927 3.56247,9.19387 0.98592,2.5446 1.73638,4.7175 1.66768,4.82865 -0.26567,0.42987 -0.58447,0.15921 -1.08642,-0.92238 -1.5039,-3.24057 -6.75633,-15.22209 -7.20063,-16.42567 -0.30117,-0.81584 -0.95497,-0.82878 -0.9018,-0.0179 0.0181,0.27631 1.4171,6.00474 3.10885,12.72984 1.69175,6.7251 3.07591,12.41034 3.07591,12.63386 0,0.22351 -0.16302,0.40639 -0.36227,0.40639 -0.24434,0 -0.81474,-1.61494 -1.75219,-4.96093 -0.76446,-2.72852 -2.08244,-7.40172 -2.92884,-10.3849 -0.8464,-2.98318 -1.80153,-6.4761 -2.12251,-7.76205 -0.51492,-2.06292 -1.02021,-2.92554 -1.45752,-2.48823 -0.13687,0.13687 0.20109,3.55328 1.36524,13.80125 0.39904,3.5127 0.56327,5.89552 0.41647,6.04232 -0.14681,0.14681 -0.3159,0.12348 -0.42877,-0.0592 -0.17984,-0.29099 -1.00136,-5.29715 -2.40895,-14.67957 -0.68408,-4.5598 -0.76622,-4.90874 -1.1555,-4.90874 -0.44995,0 -0.53132,1.44723 -0.58882,10.47263 -0.0752,11.81023 -0.25547,16.30869 -0.65874,16.44209 -0.20988,0.0694 -0.34308,-0.51564 -0.41682,-1.83083 z m -4.18924,-29.14872 c -2.466757,-0.87084 -4.360315,-1.95628 -5.961591,-3.41736 -4.74792,-4.332238 -6.345338,-11.699394 -3.769314,-17.383762 l 0.777159,-1.714912 1.052265,1.939256 c 1.382483,2.547828 3.17983,5.045511 4.468695,6.209924 2.567146,2.319261 5.845696,1.779329 7.973346,-1.313099 l 0.81791,-1.188798 0.83635,0.671883 c 0.46,0.369536 2.08651,1.537483 3.61448,2.595438 2.71649,1.880884 2.81437,1.923554 4.41237,1.923554 1.92793,0 2.85256,-0.537054 3.63356,-2.110506 0.4133,-0.832648 0.50966,-1.6363 0.52917,-4.413392 0.0131,-1.867453 0.10222,-3.395956 0.198,-3.396673 0.48255,-0.0036 1.34404,3.488132 1.47262,5.968699 0.16983,3.276695 -0.14465,4.851922 -1.54814,7.754522 -1.87718,3.882246 -5.68877,6.998666 -9.90205,8.096086 -2.43439,0.63408 -6.477,0.53032 -8.60483,-0.22086 z m 13.11659,-13.633457 c -0.58208,-0.268813 -2.5884,-1.635417 -4.45848,-3.036897 -1.87009,-1.401481 -3.53696,-2.545669 -3.70417,-2.542641 -0.16721,0.003 -0.81327,0.780651 -1.43568,1.728052 -1.75287,2.668089 -3.47566,3.398028 -5.20197,2.204048 -1.075003,-0.743516 -2.888273,-3.204224 -4.753779,-6.451147 -0.836084,-1.455209 -1.944514,-3.084583 -2.463177,-3.620832 -1.103969,-1.141397 -3.778727,-2.635663 -5.102536,-2.850554 -1.058532,-0.171829 -1.385798,-0.997258 -0.640601,-1.615717 0.516874,-0.428967 6.898992,-0.565947 7.453622,-0.159978 0.181901,0.133145 0.330729,0.754937 0.330729,1.381759 0,1.067769 0.102934,1.228489 1.631433,2.54729 3.644889,3.144839 3.924819,3.482413 3.924819,4.73301 0,1.506515 0.3164,1.076336 0.88905,-1.208729 0.25527,-1.018645 0.92607,-2.804583 1.49065,-3.96875 0.7174,-1.479269 1.05736,-2.566894 1.12894,-3.611782 0.077,-1.123488 0.33788,-1.890392 1.04973,-3.085378 1.2418,-2.084612 1.34992,-2.48354 1.13637,-4.192714 -0.14714,-1.177708 -0.4254,-1.762751 -1.52797,-3.212533 -0.74144,-0.974926 -1.87786,-2.764085 -2.52539,-3.975908 -0.81831,-1.531454 -1.38926,-2.288288 -1.87237,-2.481976 -1.560465,-0.625622 -2.539224,-1.202404 -4.260791,-2.510883 -0.995245,-0.756438 -2.228956,-1.550586 -2.741579,-1.764774 -1.317113,-0.550324 -4.600688,-2.730974 -4.889593,-3.24722 -0.325563,-0.581749 -4.050092,-3.534541 -4.458323,-3.534541 -0.178232,0 -0.883873,-0.297656 -1.568091,-0.661458 -0.684217,-0.363802 -1.404893,-0.661458 -1.6015,-0.661458 -0.449993,0 -0.476165,-0.526159 -0.02674,-0.537549 0.181901,-0.0046 0.0033,-0.252666 -0.396875,-0.551235 -0.813108,-0.606645 -1.015578,-1.459587 -0.279418,-1.177096 0.391899,0.150386 0.386564,0.103893 -0.04247,-0.37019 -0.633922,-0.700476 -0.343251,-0.979386 0.585358,-0.561674 0.590848,0.265778 0.666148,0.263898 0.397993,-0.0099 -1.011676,-1.033107 0.248431,-1.004298 1.429486,0.03268 0.497217,0.436562 1.140282,0.79375 1.429032,0.79375 0.434823,0 0.494998,-0.119543 0.350328,-0.695954 -0.326837,-1.302224 0.522149,-0.556412 1.404855,1.234127 1.053811,2.13762 1.961705,2.92905 5.028827,4.383731 1.337948,0.634565 2.826229,1.488647 3.307292,1.897961 0.481062,0.409313 1.589034,0.95865 2.462159,1.220748 0.873125,0.262098 2.108512,0.762838 2.745304,1.112756 0.699856,0.384574 1.593416,0.636214 2.259156,0.636214 0.60575,0 1.56842,0.238125 2.13929,0.529167 0.57086,0.291042 1.05166,0.529167 1.06845,0.529167 0.0168,0 -0.0196,-0.34157 -0.0809,-0.759045 -0.0799,-0.544256 -0.3941,-0.917926 -1.11042,-1.32052 -1.48229,-0.833094 -1.64445,-1.144774 -1.63093,-3.134749 l 0.0122,-1.797145 1.31413,-1.256771 c 1.16039,-1.109732 1.448,-1.25559 2.45829,-1.246684 0.99797,0.0088 1.32161,0.175646 2.53321,1.305947 0.76398,0.712724 1.38906,1.433546 1.38906,1.601827 0,0.168281 0.23813,0.608693 0.52917,0.978693 0.64103,0.814941 0.66913,1.464704 0.10084,2.332025 -0.33487,0.511066 -0.36843,0.812138 -0.1538,1.379754 0.15099,0.399323 0.34601,1.053464 0.43337,1.453647 0.22515,1.031393 0.78718,0.907734 2.12348,-0.467217 0.63867,-0.657151 1.62702,-1.403359 2.19631,-1.65824 1.22628,-0.549022 3.69877,-3.005715 4.17702,-4.150339 0.18561,-0.444218 1.0394,-1.580257 1.89731,-2.524531 2.37288,-2.611738 2.45463,-2.775153 2.45463,-4.906635 0,-1.034774 0.0743,-1.955718 0.16514,-2.046544 0.0908,-0.09083 0.37362,0.09232 0.62842,0.406994 l 0.46329,0.572132 0.56758,-1.11255 c 0.55486,-1.087628 1.58565,-1.624991 1.24594,-0.649529 -0.14309,0.410889 -0.11847,0.407905 0.21867,-0.02649 0.60125,-0.774689 1.06208,-0.26137 0.52084,0.580162 l -0.45221,0.703104 0.57013,-0.504028 c 0.71458,-0.631741 0.79184,-0.07215 0.12539,0.908177 l -0.44473,0.654184 0.57864,-0.505496 c 0.31826,-0.278022 0.63513,-0.449009 0.70417,-0.379969 0.16911,0.169104 -1.46044,2.769518 -2.48145,3.959882 -0.45182,0.526763 -1.00411,1.475361 -1.22732,2.107997 -0.55379,1.569621 -1.53302,3.190321 -2.85372,4.723156 -0.60879,0.706586 -1.40211,1.778575 -1.76292,2.382199 -0.36082,0.603624 -1.40604,1.869983 -2.32273,2.814132 l -1.66671,1.716633 0.41233,4.127238 c 0.31618,3.164838 0.34877,4.597237 0.13974,6.142817 -0.31851,2.355147 -0.19521,8.065484 0.19511,9.035684 0.14827,0.368558 0.60549,1.975902 1.01605,3.571875 0.66187,2.572938 0.74754,3.376333 0.75601,7.089544 l 0.01,4.187774 -0.86407,0.773163 c -1.00989,0.903643 -1.17224,0.920839 -2.57551,0.272791 z m -3.04271,-7.413554 c 0,-0.132556 -0.23659,-0.995759 -0.52575,-1.918229 -0.28917,-0.922471 -0.52729,-1.878552 -0.52917,-2.124625 -0.002,-0.246073 -0.11108,-0.51395 -0.24268,-0.595282 -0.30108,-0.186076 -2.22077,3.479281 -2.00505,3.828328 0.0874,0.141388 0.53881,0.260855 1.00316,0.265483 0.46436,0.0046 1.0754,0.183222 1.35787,0.396875 0.58565,0.442961 0.94162,0.498703 0.94162,0.14745 z M 99.477998,80.581424 c -0.654844,-0.512174 -1.290866,-1.02896 -1.413381,-1.148415 -0.257664,-0.251226 4.001293,-2.45808 4.339913,-2.248803 0.12395,0.0766 0.1602,0.343826 0.0806,0.593827 -0.30991,0.972891 -1.55888,3.74727 -1.68418,3.741115 -0.0728,-0.0036 -0.66807,-0.42555 -1.322912,-0.937724 z m -2.116667,-3.605975 c 0,-0.161412 -0.458798,-1.016152 -1.01955,-1.899422 -0.560753,-0.883271 -2.42321,-4.16579 -4.138795,-7.294488 -1.715584,-3.128698 -4.30159,-7.819258 -5.746678,-10.423466 -1.940936,-3.49778 -2.539265,-4.789415 -2.289984,-4.94348 0.485383,-0.299982 0.608149,-0.169795 1.706255,1.809405 0.965858,1.740838 3.695592,6.412532 5.139062,8.795041 0.396744,0.654844 2.119337,3.542836 3.827984,6.417761 1.708647,2.874925 3.213147,5.292967 3.343335,5.373427 0.714451,0.441555 0.591418,-0.447396 -0.414132,-2.992247 -2.678944,-6.779878 -5.729897,-14.941819 -5.624636,-15.04708 0.397974,-0.397974 1.071317,0.528142 2.007507,2.761123 0.590536,1.408536 1.570441,3.692068 2.177566,5.074516 0.607126,1.382448 1.772319,4.052855 2.589319,5.934238 1.523446,3.508188 2.366276,4.60086 2.028756,2.630154 -0.0964,-0.563072 -0.81167,-3.583611 -1.589413,-6.712309 -0.777743,-3.128698 -1.381937,-5.722765 -1.342653,-5.764594 0.03928,-0.04183 0.3661,0.05821 0.726259,0.222311 0.583145,0.265699 0.836807,0.954712 2.317067,6.29376 0.91422,3.297469 1.84219,6.139746 2.06214,6.316171 0.63447,0.50891 -0.16264,1.463146 -1.56601,1.874702 -0.64402,0.188866 -1.850992,0.686418 -2.682168,1.105672 -0.831177,0.419254 -1.511231,0.630217 -1.511231,0.468805 z m 21.478609,-0.528806 c -0.26238,-0.971005 -0.47048,-0.615665 2.77224,-4.733752 1.18698,-1.5074 3.60069,-4.586196 5.36381,-6.841769 2.98937,-3.824327 3.68053,-4.504837 3.89654,-3.836458 0.047,0.145521 -1.25273,2.122982 -2.88836,4.394358 -1.63564,2.271377 -4.22404,5.867349 -5.75201,7.991051 -1.52797,2.123701 -2.86401,3.866943 -2.96899,3.87387 -0.10498,0.0069 -0.29544,-0.374357 -0.42323,-0.8473 z M 83.829498,75.111861 c -5.717686,-4.479486 -8.187105,-6.6193 -7.932604,-6.873801 0.184521,-0.184521 0.9277,0.209859 2.334747,1.238971 1.135236,0.83031 3.51231,2.544668 5.282386,3.809685 2.998605,2.143009 3.189984,2.331642 2.803263,2.763052 -0.228281,0.254662 -0.4859,0.457681 -0.572487,0.451155 -0.08659,-0.0065 -0.948474,-0.631604 -1.915305,-1.389062 z m 0.281991,-5.022448 c -9.154098,-9.489747 -9.603825,-9.987123 -9.302666,-10.288282 0.204108,-0.204108 2.495202,1.843773 8.045503,7.191427 4.268072,4.112239 7.799818,7.579384 7.848325,7.704765 0.04851,0.125381 -0.368212,0.224712 -0.926042,0.220736 -0.965748,-0.0069 -1.236584,-0.237732 -5.66512,-4.828646 z m 7.751589,3.446813 C 83.526623,62.150258 82.707463,60.902372 83.56973,60.902372 c 0.18066,0 2.14172,2.438356 8.698372,10.815437 1.200547,1.533874 2.182812,2.883051 2.182812,2.998171 0,0.11512 -0.353431,0.209309 -0.785404,0.209309 -0.641936,0 -0.971182,-0.253737 -1.802432,-1.389063 z m 11.475852,-2.634937 c -0.10197,-1.352061 -0.25253,-2.994073 -0.33458,-3.648917 l -0.14919,-1.190625 0.87207,1.157413 c 1.19971,1.59226 1.36041,3.40031 0.44486,5.005046 l -0.64777,1.135375 z m 15.31486,1.030149 c -0.19526,-1.302083 -0.31416,-1.072125 7.41235,-14.336358 0.7629,-1.309687 1.70603,-2.936694 2.09584,-3.61557 0.797,-1.388043 1.33708,-1.927028 1.70383,-1.700369 0.13667,0.08447 -0.31476,1.196045 -1.00317,2.470174 -0.68841,1.274129 -3.01248,5.582535 -5.16461,9.574235 -2.15213,3.9917 -4.12663,7.608987 -4.38778,8.038414 l -0.47482,0.780778 z m 0.0911,-8.672125 c -0.0869,-0.911361 0.13714,-1.691094 1.16434,-4.052069 1.26026,-2.896688 1.87568,-3.86738 2.22834,-3.514722 0.17244,0.172434 -2.68606,8.001597 -3.0939,8.473934 -0.10514,0.121757 -0.23958,-0.286458 -0.29878,-0.907143 z M 95.635028,50.478525 c -0.519975,-0.793583 -0.630205,-2.047981 -0.193554,-2.202617 0.344162,-0.121882 0.665437,0.52549 0.981129,1.976985 0.224517,1.032284 -0.182612,1.148922 -0.787575,0.225632 z m -15.60529,-8.892978 c -0.152631,-0.246962 1.470907,-1.320675 1.996965,-1.320675 0.480142,0 -0.714313,1.237495 -1.356567,1.405449 -0.278407,0.0728 -0.566586,0.03466 -0.640398,-0.08477 z m 40.614922,-1.589389 c -0.3638,-0.124815 -1.34591,-0.361949 -2.18246,-0.526964 -1.27998,-0.252485 -1.54705,-0.403832 -1.68542,-0.955121 -0.0904,-0.360302 -0.10665,-0.712862 -0.0361,-0.783467 0.0706,-0.0706 0.96929,0.0105 1.99708,0.180239 1.02779,0.169736 2.05589,0.236785 2.28466,0.148998 0.55299,-0.212205 0.52852,-0.951805 -0.0471,-1.422808 -0.41625,-0.340615 -0.36958,-0.362953 0.4621,-0.221175 0.50882,0.08674 1.15521,0.387784 1.43641,0.668991 0.50533,0.505323 0.50307,0.514406 -0.19307,0.779081 -0.55013,0.209157 -0.74171,0.501344 -0.87491,1.334368 -0.0938,0.586614 -0.24463,1.057172 -0.33518,1.045684 -0.0905,-0.01149 -0.46227,-0.12301 -0.82608,-0.247826 z m -30.691662,-9.21745 c 0,-1.390962 1.751857,-3.210559 3.093239,-3.212848 0.902586,-0.0015 0.95927,0.447214 0.09456,0.748652 -0.429175,0.149611 -1.322003,0.837353 -1.984061,1.528316 -0.662059,0.690962 -1.203743,1.112108 -1.203743,0.93588 z m 14.684962,-4.159829 c -0.43624,-0.22746 -1.0061,-0.606272 -1.26636,-0.841804 -0.39758,-0.359807 -0.61208,-0.378019 -1.34229,-0.113971 -1.05098,0.380041 -3.251727,0.414756 -3.474191,0.0548 -0.08965,-0.145056 0.316696,-0.33575 0.921534,-0.432467 0.751627,-0.12019 1.692107,-0.644559 3.080827,-1.717736 2.56584,-1.982825 3.27278,-2.123196 6.04517,-1.200325 1.16608,0.388161 2.53686,0.808763 3.04618,0.93467 l 0.92604,0.228923 -0.98369,0.42945 c -0.54103,0.236198 -1.20944,0.42945 -1.48537,0.42945 -0.28525,0 -0.81282,0.448979 -1.22292,1.040746 -1.0617,1.532032 -2.70396,1.991744 -4.24493,1.188262 z m 2.04854,-1.567549 c 0.20386,-1.066395 -0.0739,-2.021224 -0.5611,-1.929045 -0.44225,0.08367 -0.73329,1.497868 -0.45664,2.218815 0.23309,0.607419 0.88153,0.422795 1.01774,-0.28977 z m 10.10613,-2.098855 c -0.40004,-0.295255 -0.44347,-0.450194 -0.19645,-0.70079 0.24872,-0.252307 0.4628,-0.226289 0.99219,0.12058 0.37127,0.243268 0.67504,0.558623 0.67504,0.700789 0,0.384895 -0.88412,0.312412 -1.47078,-0.120579 z"
       id="path1" /></g></svg>
